<svg xmlns="http://www.w3.org/2000/svg" xmlns:xlink="http://www.w3.org/1999/xlink" width="1024" zoomAndPan="magnify" viewBox="0 0 768 767.999994" height="1024" preserveAspectRatio="xMidYMid meet" version="1.0"><defs><clipPath id="fae5ba5e61"><path d="M 33 126.339844 L 740 126.339844 L 740 637 L 33 637 Z M 33 126.339844 " clip-rule="nonzero"/></clipPath><clipPath id="31747346f2"><path d="M 33 126.339844 L 346 126.339844 L 346 475 L 33 475 Z M 33 126.339844 " clip-rule="nonzero"/></clipPath></defs><g clip-path="url(#fae5ba5e61)"><path fill="#8c52ff" d="M 739.636719 417.046875 C 739.636719 419.582031 739.484375 422.269531 739.335938 424.804688 C 739.039062 430.023438 738.589844 435.09375 737.992188 440.167969 C 736.054688 455.53125 732.476562 470.445312 727.253906 484.617188 C 712.191406 526.082031 684 562.175781 646.261719 586.789062 C 639.253906 591.261719 631.945312 595.289062 624.484375 599.167969 C 603.304688 610.207031 580.632812 619.007812 556.46875 625.417969 C 490.394531 642.871094 423.71875 638.992188 363.757812 617.960938 L 363.757812 617.8125 C 287.09375 590.964844 221.613281 536.371094 182.085938 462.6875 C 182.085938 462.539062 181.9375 462.390625 181.9375 462.242188 C 180.742188 460.003906 179.550781 457.765625 178.507812 455.53125 C 178.355469 455.082031 178.058594 454.636719 177.910156 454.1875 C 176.867188 452.25 175.972656 450.308594 175.074219 448.222656 C 174.777344 447.476562 174.328125 446.730469 174.03125 445.984375 C 173.285156 444.34375 172.539062 442.554688 171.644531 440.761719 C 171.199219 439.71875 170.75 438.675781 170.304688 437.632812 C 169.707031 436.140625 169.109375 434.796875 168.511719 433.304688 C 167.917969 431.964844 167.46875 430.769531 166.871094 429.425781 L 166.574219 429.425781 C 161.503906 416.898438 157.324219 403.921875 153.746094 390.496094 C 145.691406 359.921875 142.261719 329.34375 142.859375 299.214844 C 93.636719 293.695312 50.828125 258.792969 37.554688 208.226562 C 30.09375 180.484375 32.78125 152.292969 43.519531 127.832031 C 44.117188 126.339844 46.351562 126.488281 46.800781 127.980469 C 60.375 179.441406 102.882812 204.648438 152.703125 209.421875 C 163.292969 210.464844 174.179688 210.167969 185.070312 208.375 C 188.796875 207.78125 192.675781 207.035156 196.40625 205.992188 C 230.113281 197.039062 258.15625 185.109375 273.96875 157.214844 C 275.308594 154.828125 278.890625 155.425781 279.335938 158.109375 C 288.734375 219.863281 250.25 279.972656 188.648438 296.230469 C 185.964844 296.976562 183.128906 297.574219 180.445312 298.167969 C 181.488281 307.566406 183.28125 317.113281 185.816406 326.507812 C 195.359375 362.15625 213.558594 393.332031 237.722656 417.792969 C 237.871094 417.792969 237.871094 417.792969 238.019531 417.792969 C 238.019531 417.792969 238.019531 417.792969 238.167969 417.941406 C 284.109375 401.832031 321.25 370.660156 345.265625 331.730469 C 345.265625 331.582031 345.414062 331.429688 345.414062 331.28125 C 347.203125 326.957031 349.292969 322.78125 351.378906 318.605469 C 353.46875 314.425781 355.855469 310.398438 358.390625 306.371094 C 358.390625 306.371094 358.390625 306.371094 358.390625 306.222656 C 370.917969 285.789062 387.027344 267.59375 405.972656 252.527344 C 409.847656 249.542969 413.726562 246.5625 417.753906 243.875 C 420.4375 242.085938 423.125 240.296875 425.957031 238.507812 C 430.132812 235.972656 434.460938 233.433594 438.785156 231.199219 C 441.769531 229.707031 444.75 228.214844 447.734375 226.871094 C 458.324219 221.949219 469.511719 218.070312 481.144531 214.941406 C 498.300781 210.464844 515.601562 208.226562 532.457031 208.078125 C 536.78125 208.078125 541.257812 208.226562 545.582031 208.375 C 558.109375 209.121094 570.339844 210.914062 582.273438 213.894531 C 598.832031 217.921875 614.789062 224.039062 629.855469 231.945312 C 631.644531 232.839844 633.433594 233.882812 635.226562 234.925781 C 647.457031 241.789062 658.941406 249.992188 669.382812 259.238281 C 673.558594 262.96875 677.734375 266.695312 681.613281 270.722656 C 685.640625 274.902344 689.519531 279.226562 693.246094 283.851562 C 694.589844 285.492188 695.78125 286.984375 696.976562 288.625 C 698.617188 290.710938 700.109375 292.800781 701.75 295.035156 C 703.242188 297.125 704.582031 299.0625 705.925781 301.300781 C 710.101562 307.714844 714.128906 314.425781 717.558594 321.4375 C 718.605469 323.527344 719.648438 325.613281 720.691406 327.851562 C 722.632812 332.175781 724.570312 336.503906 726.210938 340.976562 C 728.746094 347.6875 730.984375 354.550781 732.921875 361.710938 C 736.351562 374.984375 738.589844 388.261719 739.335938 401.535156 C 739.636719 406.605469 739.785156 411.828125 739.636719 417.046875 Z M 739.636719 417.046875 " fill-opacity="1" fill-rule="nonzero"/></g><g clip-path="url(#31747346f2)"><path fill="#5e17eb" d="M 336.464844 474.175781 C 299.023438 465.074219 264.570312 445.535156 237.722656 417.941406 C 283.8125 401.832031 321.101562 370.511719 345.113281 331.28125 C 326.917969 372.449219 321.996094 420.03125 334.375 466.867188 C 334.972656 469.402344 335.71875 471.789062 336.464844 474.175781 Z M 237.574219 417.941406 C 213.410156 393.332031 195.210938 362.15625 185.664062 326.507812 C 183.128906 317.113281 181.339844 307.566406 180.296875 298.167969 C 182.980469 297.574219 185.816406 296.976562 188.5 296.230469 C 250.25 279.972656 288.585938 219.863281 279.1875 158.109375 C 278.738281 155.425781 275.160156 154.828125 273.816406 157.214844 C 258.007812 185.257812 229.964844 197.039062 196.257812 205.992188 C 192.527344 207.035156 188.648438 207.78125 184.921875 208.375 C 174.03125 210.167969 163.144531 210.464844 152.554688 209.421875 C 102.882812 204.648438 60.375 179.441406 46.800781 127.980469 C 46.351562 126.339844 44.117188 126.339844 43.519531 127.832031 C 32.929688 152.292969 30.09375 180.484375 37.554688 208.226562 C 50.828125 258.792969 93.636719 293.695312 142.558594 299.511719 C 141.964844 329.640625 145.394531 360.21875 153.449219 390.796875 C 157.027344 404.21875 161.203125 417.195312 166.277344 429.726562 C 184.621094 430.023438 203.414062 427.785156 221.910156 422.863281 C 227.28125 421.371094 232.5 419.730469 237.574219 417.941406 Z M 237.574219 417.941406 " fill-opacity="1" fill-rule="nonzero"/></g><path fill="#ffde59" d="M 727.253906 484.765625 C 712.191406 526.230469 684 562.328125 646.261719 586.9375 C 639.253906 591.410156 631.945312 595.4375 624.484375 599.316406 C 603.304688 610.355469 580.632812 619.15625 556.46875 625.570312 C 490.394531 643.019531 423.71875 639.140625 363.757812 618.109375 C 363.757812 593.648438 368.085938 569.933594 376.140625 547.558594 C 385.683594 521.457031 400.453125 497.441406 419.394531 477.15625 C 444.902344 449.710938 478.3125 428.980469 517.242188 418.835938 C 523.207031 417.195312 529.324219 416.003906 535.289062 414.960938 C 608.824219 402.28125 681.316406 430.472656 727.253906 484.765625 Z M 727.253906 484.765625 " fill-opacity="1" fill-rule="nonzero"/><path fill="#ffffff" d="M 684.746094 381.25 C 684.746094 387.960938 679.375 393.332031 672.664062 393.332031 C 665.953125 393.332031 660.582031 387.960938 660.582031 381.25 C 660.582031 374.539062 665.953125 369.167969 672.664062 369.167969 C 679.375 369.167969 684.746094 374.539062 684.746094 381.25 Z M 442.8125 372.003906 C 436.101562 372.003906 430.730469 377.371094 430.730469 384.082031 C 430.730469 390.796875 436.101562 396.164062 442.8125 396.164062 C 449.523438 396.164062 454.894531 390.796875 454.894531 384.082031 C 454.894531 377.371094 449.523438 372.003906 442.8125 372.003906 Z M 547.96875 384.082031 C 547.96875 395.121094 556.917969 404.21875 568.105469 404.21875 C 579.292969 404.21875 588.242188 395.269531 588.242188 384.082031 Z M 547.96875 384.082031 " fill-opacity="1" fill-rule="nonzero"/><path fill="#ffde59" d="M 336.464844 474.023438 C 335.71875 471.640625 334.972656 469.402344 334.375 466.867188 C 329.75 449.265625 327.515625 431.515625 327.515625 414.0625 C 327.515625 431.367188 329.75 449.117188 334.375 466.714844 C 335.121094 469.253906 335.71875 471.640625 336.464844 474.023438 Z M 394.335938 510.121094 C 401.046875 499.082031 408.953125 488.792969 417.605469 479.097656 C 408.953125 488.644531 401.046875 499.082031 394.335938 510.121094 Z M 394.335938 510.121094 " fill-opacity="1" fill-rule="nonzero"/></svg>