<svg xmlns="http://www.w3.org/2000/svg" xmlns:xlink="http://www.w3.org/1999/xlink" width="1024" zoomAndPan="magnify" viewBox="0 0 768 767.999994" height="1024" preserveAspectRatio="xMidYMid meet" version="1.0"><defs><clipPath id="6b38993201"><path d="M 92.378906 76.800781 L 675.878906 76.800781 L 675.878906 582 L 92.378906 582 Z M 92.378906 76.800781 " clip-rule="nonzero"/></clipPath></defs><rect x="-76.8" width="921.6" fill="#ffffff" y="-76.799999" height="921.599993" fill-opacity="1"/><rect x="-76.8" width="921.6" fill="#ffffff" y="-76.799999" height="921.599993" fill-opacity="1"/><path fill="#ffffff" d="M 767.988281 383.996094 C 767.988281 390.277344 767.835938 396.558594 767.527344 402.835938 C 767.21875 409.113281 766.753906 415.378906 766.140625 421.632812 C 765.523438 427.886719 764.753906 434.121094 763.832031 440.335938 C 762.910156 446.554688 761.835938 452.746094 760.609375 458.90625 C 759.382812 465.070312 758.007812 471.199219 756.480469 477.296875 C 754.953125 483.394531 753.277344 489.449219 751.453125 495.460938 C 749.628906 501.476562 747.660156 507.441406 745.542969 513.359375 C 743.425781 519.273438 741.164062 525.136719 738.757812 530.941406 C 736.355469 536.75 733.808594 542.492188 731.121094 548.171875 C 728.433594 553.855469 725.609375 559.464844 722.648438 565.007812 C 719.683594 570.550781 716.585938 576.015625 713.355469 581.40625 C 710.125 586.796875 706.765625 592.105469 703.273438 597.328125 C 699.78125 602.554688 696.164062 607.691406 692.421875 612.738281 C 688.675781 617.785156 684.8125 622.738281 680.824219 627.597656 C 676.839844 632.457031 672.734375 637.210938 668.515625 641.867188 C 664.292969 646.523438 659.960938 651.074219 655.519531 655.519531 C 651.074219 659.960938 646.523438 664.292969 641.867188 668.515625 C 637.210938 672.734375 632.457031 676.839844 627.597656 680.824219 C 622.738281 684.8125 617.785156 688.675781 612.738281 692.421875 C 607.691406 696.164062 602.554688 699.78125 597.328125 703.273438 C 592.105469 706.765625 586.796875 710.125 581.40625 713.355469 C 576.015625 716.585938 570.550781 719.683594 565.007812 722.648438 C 559.464844 725.609375 553.855469 728.433594 548.171875 731.121094 C 542.492188 733.808594 536.75 736.355469 530.941406 738.757812 C 525.136719 741.164062 519.273438 743.425781 513.359375 745.542969 C 507.441406 747.660156 501.476562 749.628906 495.460938 751.453125 C 489.449219 753.277344 483.394531 754.953125 477.296875 756.480469 C 471.199219 758.007812 465.070312 759.382812 458.90625 760.609375 C 452.746094 761.835938 446.554688 762.910156 440.335938 763.832031 C 434.121094 764.753906 427.886719 765.523438 421.632812 766.140625 C 415.378906 766.753906 409.113281 767.21875 402.835938 767.527344 C 396.558594 767.835938 390.277344 767.988281 383.996094 767.988281 C 377.710938 767.988281 371.429688 767.835938 365.152344 767.527344 C 358.875 767.21875 352.609375 766.753906 346.355469 766.140625 C 340.101562 765.523438 333.867188 764.753906 327.652344 763.832031 C 321.433594 762.910156 315.246094 761.835938 309.082031 760.609375 C 302.917969 759.382812 296.789062 758.007812 290.691406 756.480469 C 284.59375 754.953125 278.539062 753.277344 272.527344 751.453125 C 266.511719 749.628906 260.546875 747.660156 254.628906 745.542969 C 248.714844 743.425781 242.851562 741.164062 237.046875 738.757812 C 231.238281 736.355469 225.496094 733.808594 219.816406 731.121094 C 214.132812 728.433594 208.523438 725.609375 202.980469 722.648438 C 197.4375 719.683594 191.972656 716.585938 186.582031 713.355469 C 181.191406 710.125 175.882812 706.765625 170.660156 703.273438 C 165.433594 699.78125 160.296875 696.164062 155.25 692.421875 C 150.203125 688.675781 145.25 684.8125 140.390625 680.824219 C 135.53125 676.839844 130.777344 672.734375 126.121094 668.515625 C 121.464844 664.292969 116.914062 659.960938 112.46875 655.519531 C 108.027344 651.074219 103.695312 646.523438 99.472656 641.867188 C 95.253906 637.210938 91.148438 632.457031 87.164062 627.597656 C 83.175781 622.738281 79.3125 617.785156 75.566406 612.738281 C 71.824219 607.691406 68.207031 602.554688 64.714844 597.328125 C 61.222656 592.105469 57.863281 586.796875 54.632812 581.40625 C 51.402344 576.015625 48.304688 570.550781 45.339844 565.007812 C 42.378906 559.464844 39.554688 553.855469 36.867188 548.171875 C 34.179688 542.492188 31.632812 536.75 29.230469 530.941406 C 26.824219 525.136719 24.5625 519.273438 22.445312 513.359375 C 20.328125 507.441406 18.359375 501.476562 16.535156 495.460938 C 14.710938 489.449219 13.035156 483.394531 11.507812 477.296875 C 9.980469 471.199219 8.605469 465.070312 7.378906 458.90625 C 6.152344 452.746094 5.078125 446.554688 4.15625 440.335938 C 3.234375 434.121094 2.464844 427.886719 1.847656 421.632812 C 1.234375 415.378906 0.769531 409.113281 0.460938 402.835938 C 0.152344 396.558594 0 390.277344 0 383.996094 C 0 377.710938 0.152344 371.429688 0.460938 365.152344 C 0.769531 358.875 1.234375 352.609375 1.847656 346.355469 C 2.464844 340.101562 3.234375 333.867188 4.15625 327.652344 C 5.078125 321.433594 6.152344 315.246094 7.378906 309.082031 C 8.605469 302.917969 9.980469 296.789062 11.507812 290.691406 C 13.035156 284.59375 14.710938 278.539062 16.535156 272.527344 C 18.359375 266.511719 20.328125 260.546875 22.445312 254.628906 C 24.5625 248.714844 26.824219 242.851562 29.230469 237.046875 C 31.632812 231.238281 34.179688 225.496094 36.867188 219.816406 C 39.554688 214.132812 42.378906 208.523438 45.339844 202.980469 C 48.304688 197.4375 51.402344 191.972656 54.632812 186.582031 C 57.863281 181.191406 61.222656 175.882812 64.714844 170.660156 C 68.207031 165.433594 71.824219 160.296875 75.566406 155.25 C 79.3125 150.203125 83.175781 145.25 87.164062 140.390625 C 91.148438 135.53125 95.253906 130.777344 99.472656 126.121094 C 103.695312 121.464844 108.027344 116.914062 112.46875 112.46875 C 116.914062 108.027344 121.464844 103.695312 126.121094 99.472656 C 130.777344 95.253906 135.53125 91.148438 140.390625 87.164062 C 145.25 83.175781 150.203125 79.3125 155.25 75.566406 C 160.296875 71.824219 165.433594 68.207031 170.660156 64.714844 C 175.882812 61.222656 181.191406 57.863281 186.582031 54.632812 C 191.972656 51.402344 197.4375 48.304688 202.980469 45.339844 C 208.523438 42.378906 214.132812 39.554688 219.816406 36.867188 C 225.496094 34.179688 231.238281 31.632812 237.046875 29.230469 C 242.851562 26.824219 248.714844 24.5625 254.628906 22.445312 C 260.546875 20.328125 266.511719 18.359375 272.527344 16.535156 C 278.539062 14.710938 284.59375 13.035156 290.691406 11.507812 C 296.789062 9.980469 302.917969 8.605469 309.082031 7.378906 C 315.246094 6.152344 321.433594 5.078125 327.652344 4.15625 C 333.867188 3.234375 340.101562 2.464844 346.355469 1.847656 C 352.609375 1.234375 358.875 0.769531 365.152344 0.460938 C 371.429688 0.152344 377.710938 0 383.996094 0 C 390.277344 0 396.558594 0.152344 402.835938 0.460938 C 409.113281 0.769531 415.378906 1.234375 421.632812 1.847656 C 427.886719 2.464844 434.121094 3.234375 440.335938 4.15625 C 446.554688 5.078125 452.746094 6.152344 458.90625 7.378906 C 465.070312 8.605469 471.199219 9.980469 477.296875 11.507812 C 483.394531 13.035156 489.449219 14.710938 495.460938 16.535156 C 501.476562 18.359375 507.441406 20.328125 513.359375 22.445312 C 519.273438 24.5625 525.136719 26.824219 530.941406 29.230469 C 536.75 31.632812 542.492188 34.179688 548.171875 36.867188 C 553.855469 39.554688 559.464844 42.378906 565.007812 45.339844 C 570.550781 48.304688 576.015625 51.402344 581.40625 54.632812 C 586.796875 57.863281 592.105469 61.222656 597.328125 64.714844 C 602.554688 68.207031 607.691406 71.824219 612.738281 75.566406 C 617.785156 79.3125 622.738281 83.175781 627.597656 87.164062 C 632.457031 91.148438 637.210938 95.253906 641.867188 99.472656 C 646.523438 103.695312 651.074219 108.027344 655.519531 112.46875 C 659.960938 116.914062 664.292969 121.464844 668.515625 126.121094 C 672.734375 130.777344 676.839844 135.53125 680.824219 140.390625 C 684.8125 145.25 688.675781 150.203125 692.421875 155.25 C 696.164062 160.296875 699.78125 165.433594 703.273438 170.660156 C 706.765625 175.882812 710.125 181.191406 713.355469 186.582031 C 716.585938 191.972656 719.683594 197.4375 722.648438 202.980469 C 725.609375 208.523438 728.433594 214.132812 731.121094 219.816406 C 733.808594 225.496094 736.355469 231.238281 738.757812 237.046875 C 741.164062 242.851562 743.425781 248.714844 745.542969 254.628906 C 747.660156 260.546875 749.628906 266.511719 751.453125 272.527344 C 753.277344 278.539062 754.953125 284.59375 756.480469 290.691406 C 758.007812 296.789062 759.382812 302.917969 760.609375 309.082031 C 761.835938 315.246094 762.910156 321.433594 763.832031 327.652344 C 764.753906 333.867188 765.523438 340.101562 766.140625 346.355469 C 766.753906 352.609375 767.21875 358.875 767.527344 365.152344 C 767.835938 371.429688 767.988281 377.710938 767.988281 383.996094 Z M 767.988281 383.996094 " fill-opacity="1" fill-rule="nonzero"/><g clip-path="url(#6b38993201)"><path fill="#8c52ff" d="M 670.941406 573.972656 L 664.226562 562.34375 L 664.226562 559.792969 L 662.402344 559.183594 L 639.050781 518.742188 L 639.0625 518.753906 L 629.441406 502.089844 L 629.441406 500.316406 L 627.921875 499.457031 L 489.957031 260.492188 L 489.957031 260.476562 L 455.84375 201.414062 L 455.765625 201.28125 L 447.121094 186.308594 L 447.121094 186.320312 L 425.378906 148.695312 L 418.507812 136.785156 L 418.507812 136.773438 L 383.960938 76.914062 L 371.21875 98.972656 L 237.046875 331.382812 L 226.273438 350.03125 L 216.664062 366.671875 L 187.074219 417.925781 L 167.632812 451.601562 L 143.539062 493.339844 L 104.339844 561.230469 L 104.351562 561.230469 L 92.378906 581.96875 L 675.582031 581.96875 Z M 604.277344 484.523438 C 603.75 484.152344 603.222656 483.796875 602.707031 483.414062 C 600.894531 482.117188 599.097656 480.796875 597.3125 479.449219 C 597.113281 479.304688 596.917969 479.144531 596.71875 478.984375 C 595.144531 477.796875 593.585938 476.59375 592.054688 475.363281 C 591.457031 474.890625 590.875 474.414062 590.296875 473.9375 C 589.160156 473.011719 588.023438 472.101562 586.898438 471.160156 C 586.222656 470.605469 585.5625 470.023438 584.902344 469.457031 C 583.886719 468.585938 582.855469 467.710938 581.851562 466.828125 C 581.164062 466.21875 580.476562 465.609375 579.789062 464.988281 C 578.824219 464.117188 577.859375 463.246094 576.894531 462.371094 C 576.207031 461.738281 575.519531 461.089844 574.832031 460.457031 C 573.894531 459.570312 572.96875 458.683594 572.042969 457.785156 C 571.367188 457.140625 570.695312 456.476562 570.035156 455.816406 C 569.109375 454.90625 568.195312 453.980469 567.285156 453.054688 C 566.636719 452.40625 566.003906 451.746094 565.367188 451.085938 C 564.429688 450.109375 563.503906 449.128906 562.59375 448.136719 C 562.011719 447.503906 561.417969 446.882812 560.835938 446.25 C 559.816406 445.136719 558.828125 444.015625 557.820312 442.890625 C 557.359375 442.363281 556.882812 441.847656 556.421875 441.320312 C 554.980469 439.667969 553.554688 437.988281 552.140625 436.296875 C 551.980469 436.097656 551.820312 435.898438 551.648438 435.703125 C 550.40625 434.195312 549.191406 432.6875 547.976562 431.167969 C 547.5 430.574219 547.039062 429.964844 546.574219 429.359375 C 545.691406 428.222656 544.816406 427.085938 543.945312 425.933594 C 543.417969 425.234375 542.902344 424.519531 542.371094 423.808594 C 541.59375 422.738281 540.800781 421.667969 540.03125 420.59375 C 539.492188 419.84375 538.960938 419.089844 538.433594 418.335938 C 537.695312 417.277344 536.964844 416.222656 536.238281 415.152344 C 535.710938 414.371094 535.195312 413.589844 534.679688 412.8125 C 533.980469 411.742188 533.28125 410.671875 532.578125 409.597656 C 532.078125 408.804688 531.574219 408.027344 531.070312 407.234375 C 530.386719 406.136719 529.710938 405.027344 529.035156 403.929688 C 528.5625 403.148438 528.085938 402.371094 527.621094 401.589844 C 526.933594 400.425781 526.261719 399.265625 525.585938 398.089844 C 525.164062 397.347656 524.726562 396.609375 524.304688 395.855469 C 523.566406 394.546875 522.851562 393.222656 522.136719 391.902344 C 521.808594 391.28125 521.464844 390.671875 521.132812 390.050781 C 520.101562 388.097656 519.085938 386.140625 518.105469 384.15625 C 518.066406 384.078125 518.027344 384 517.988281 383.921875 C 517.050781 382.03125 516.125 380.113281 515.226562 378.195312 C 514.921875 377.535156 514.632812 376.875 514.328125 376.226562 C 513.707031 374.878906 513.085938 373.519531 512.488281 372.15625 C 512.144531 371.378906 511.816406 370.585938 511.472656 369.792969 C 510.945312 368.550781 510.414062 367.292969 509.898438 366.039062 C 509.554688 365.191406 509.226562 364.347656 508.882812 363.5 C 508.394531 362.285156 507.917969 361.054688 507.453125 359.839844 C 507.125 358.96875 506.792969 358.09375 506.476562 357.222656 C 506.027344 356.007812 505.589844 354.777344 505.15625 353.546875 C 504.851562 352.675781 504.535156 351.789062 504.242188 350.90625 C 503.820312 349.664062 503.410156 348.40625 503 347.152344 C 502.722656 346.28125 502.433594 345.421875 502.167969 344.546875 C 501.757812 343.238281 501.375 341.929688 500.976562 340.621094 C 500.742188 339.789062 500.488281 338.972656 500.25 338.136719 C 499.839844 336.683594 499.445312 335.230469 499.0625 333.777344 C 498.875 333.078125 498.679688 332.390625 498.492188 331.6875 C 497.9375 329.535156 497.398438 327.355469 496.894531 325.1875 C 496.378906 322.980469 495.902344 320.757812 495.453125 318.523438 C 495.335938 317.96875 495.230469 317.402344 495.109375 316.847656 C 494.6875 314.707031 494.277344 312.5625 493.90625 310.410156 C 493.894531 310.304688 493.867188 310.210938 493.855469 310.121094 C 493.472656 307.886719 493.128906 305.640625 492.796875 303.390625 C 492.71875 302.824219 492.640625 302.253906 492.558594 301.6875 C 492.269531 299.597656 491.992188 297.511719 491.753906 295.421875 C 491.726562 295.222656 491.699219 295.039062 491.6875 294.839844 C 491.4375 292.582031 491.210938 290.320312 491.011719 288.0625 C 490.960938 287.492188 490.921875 286.925781 490.867188 286.355469 C 490.816406 285.695312 490.773438 285.035156 490.722656 284.375 L 607.59375 486.796875 C 606.472656 486.070312 605.375 485.289062 604.277344 484.523438 Z M 478.640625 264.152344 C 478.640625 285.65625 481.074219 307.066406 485.886719 327.75 C 486.441406 330.117188 487.007812 332.480469 487.617188 334.832031 C 487.855469 335.746094 488.117188 336.644531 488.355469 337.554688 C 488.738281 338.984375 489.125 340.425781 489.53125 341.851562 C 489.835938 342.894531 490.167969 343.941406 490.472656 344.984375 C 490.855469 346.265625 491.222656 347.546875 491.621094 348.816406 C 491.976562 349.925781 492.347656 351.039062 492.71875 352.148438 C 493.113281 353.335938 493.484375 354.527344 493.894531 355.703125 C 494.289062 356.867188 494.726562 358.015625 495.136719 359.164062 C 495.53125 360.277344 495.929688 361.398438 496.339844 362.507812 C 496.777344 363.683594 497.25 364.847656 497.699219 366.023438 C 498.125 367.09375 498.519531 368.179688 498.957031 369.25 C 499.445312 370.4375 499.949219 371.628906 500.449219 372.804688 C 500.886719 373.835938 501.308594 374.878906 501.746094 375.898438 C 502.261719 377.101562 502.816406 378.277344 503.355469 379.480469 C 503.804688 380.484375 504.242188 381.488281 504.707031 382.480469 C 505.261719 383.683594 505.84375 384.859375 506.421875 386.046875 C 506.898438 387.027344 507.347656 388.003906 507.835938 388.96875 C 508.433594 390.171875 509.054688 391.347656 509.660156 392.535156 C 510.152344 393.488281 510.625 394.441406 511.128906 395.378906 C 511.761719 396.566406 512.421875 397.757812 513.070312 398.933594 C 513.574219 399.847656 514.0625 400.769531 514.578125 401.683594 C 515.253906 402.871094 515.9375 404.046875 516.625 405.226562 C 517.140625 406.125 517.65625 407.023438 518.1875 407.90625 C 518.886719 409.085938 519.613281 410.246094 520.328125 411.410156 C 520.867188 412.28125 521.398438 413.167969 521.953125 414.039062 C 522.679688 415.191406 523.433594 416.339844 524.1875 417.476562 C 524.753906 418.335938 525.296875 419.207031 525.878906 420.066406 C 526.644531 421.203125 527.425781 422.328125 528.203125 423.449219 C 528.785156 424.296875 529.367188 425.15625 529.949219 425.988281 C 530.742188 427.109375 531.546875 428.207031 532.355469 429.304688 C 532.960938 430.136719 533.558594 430.96875 534.164062 431.804688 C 534.984375 432.898438 535.816406 433.984375 536.648438 435.066406 C 537.269531 435.886719 537.890625 436.707031 538.527344 437.511719 C 539.371094 438.582031 540.230469 439.640625 541.089844 440.699219 C 541.738281 441.503906 542.386719 442.308594 543.046875 443.117188 C 543.90625 444.160156 544.804688 445.191406 545.675781 446.222656 C 546.351562 447.015625 547.023438 447.820312 547.699219 448.601562 C 548.585938 449.617188 549.496094 450.625 550.394531 451.628906 C 551.09375 452.40625 551.78125 453.199219 552.496094 453.96875 C 553.40625 454.957031 554.332031 455.9375 555.257812 456.914062 C 555.984375 457.679688 556.699219 458.460938 557.4375 459.214844 C 558.363281 460.179688 559.316406 461.117188 560.253906 462.070312 C 561.007812 462.820312 561.761719 463.589844 562.515625 464.34375 C 563.453125 465.265625 564.417969 466.179688 565.367188 467.089844 C 566.148438 467.84375 566.929688 468.597656 567.722656 469.335938 C 568.6875 470.238281 569.664062 471.121094 570.628906 471.996094 C 571.433594 472.734375 572.242188 473.476562 573.0625 474.203125 C 574.039062 475.0625 575.015625 475.90625 576.007812 476.765625 C 576.855469 477.492188 577.6875 478.21875 578.53125 478.945312 C 579.523438 479.777344 580.527344 480.597656 581.519531 481.417969 C 582.390625 482.132812 583.25 482.84375 584.125 483.546875 C 585.128906 484.351562 586.144531 485.132812 587.148438 485.910156 C 588.046875 486.613281 588.933594 487.3125 589.847656 488 C 590.863281 488.765625 591.882812 489.519531 592.910156 490.273438 C 593.835938 490.960938 594.761719 491.648438 595.699219 492.320312 C 596.71875 493.046875 597.75 493.773438 598.78125 494.488281 C 599.746094 495.164062 600.695312 495.835938 601.660156 496.496094 C 602.691406 497.199219 603.734375 497.886719 604.765625 498.574219 C 605.757812 499.21875 606.738281 499.882812 607.742188 500.527344 C 608.785156 501.203125 609.828125 501.851562 610.886719 502.496094 C 611.902344 503.132812 612.921875 503.78125 613.953125 504.402344 C 614.996094 505.035156 616.054688 505.65625 617.113281 506.277344 C 617.945312 506.765625 618.761719 507.269531 619.597656 507.746094 L 645.84375 553.210938 C 645.5 553.078125 645.144531 552.945312 644.785156 552.800781 C 643.609375 552.335938 642.449219 551.847656 641.285156 551.371094 C 639.816406 550.765625 638.335938 550.15625 636.882812 549.523438 C 635.71875 549.019531 634.558594 548.492188 633.394531 547.976562 C 631.953125 547.328125 630.511719 546.679688 629.085938 546.019531 C 627.921875 545.476562 626.773438 544.921875 625.621094 544.382812 C 624.207031 543.707031 622.792969 543.019531 621.394531 542.320312 C 620.242188 541.75 619.105469 541.167969 617.96875 540.585938 C 616.570312 539.875 615.183594 539.148438 613.808594 538.40625 C 612.683594 537.800781 611.558594 537.191406 610.4375 536.582031 C 609.0625 535.828125 607.6875 535.0625 606.328125 534.285156 C 605.214844 533.648438 604.121094 533.015625 603.023438 532.378906 C 601.660156 531.585938 600.3125 530.769531 598.964844 529.949219 C 597.894531 529.300781 596.8125 528.640625 595.753906 527.980469 C 594.40625 527.132812 593.058594 526.273438 591.722656 525.414062 C 590.679688 524.742188 589.632812 524.066406 588.605469 523.378906 C 587.253906 522.480469 585.921875 521.570312 584.585938 520.65625 C 583.582031 519.96875 582.578125 519.28125 581.585938 518.59375 C 580.238281 517.644531 578.890625 516.667969 577.554688 515.703125 C 576.601562 515.015625 575.652344 514.328125 574.699219 513.625 C 573.324219 512.59375 571.964844 511.550781 570.601562 510.507812 C 569.71875 509.832031 568.832031 509.160156 567.960938 508.472656 C 566.503906 507.335938 565.078125 506.160156 563.652344 504.996094 C 562.882812 504.375 562.117188 503.765625 561.351562 503.132812 C 559.671875 501.730469 558.019531 500.316406 556.367188 498.875 C 555.878906 498.453125 555.390625 498.042969 554.902344 497.621094 C 552.761719 495.746094 550.644531 493.828125 548.558594 491.898438 C 548.347656 491.714844 548.148438 491.515625 547.949219 491.316406 C 546.085938 489.585938 544.234375 487.828125 542.425781 486.042969 C 541.777344 485.410156 541.144531 484.761719 540.507812 484.128906 C 539.148438 482.765625 537.785156 481.417969 536.453125 480.03125 C 535.699219 479.25 534.972656 478.457031 534.230469 477.675781 C 533.027344 476.410156 531.824219 475.140625 530.636719 473.859375 C 529.855469 473 529.089844 472.125 528.308594 471.265625 C 527.199219 470.023438 526.078125 468.78125 524.980469 467.527344 C 524.1875 466.617188 523.40625 465.691406 522.628906 464.777344 C 521.582031 463.550781 520.527344 462.308594 519.496094 461.050781 C 518.703125 460.097656 517.933594 459.121094 517.15625 458.15625 C 516.164062 456.914062 515.160156 455.671875 514.183594 454.417969 C 513.402344 453.425781 512.648438 452.421875 511.882812 451.417969 C 510.929688 450.160156 509.980469 448.90625 509.054688 447.636719 C 508.300781 446.605469 507.558594 445.574219 506.808594 444.542969 C 505.894531 443.273438 504.996094 442.007812 504.097656 440.722656 C 503.371094 439.667969 502.644531 438.621094 501.929688 437.550781 C 501.058594 436.269531 500.199219 434.960938 499.339844 433.667969 C 498.640625 432.597656 497.9375 431.511719 497.238281 430.429688 C 496.40625 429.121094 495.574219 427.796875 494.765625 426.476562 C 494.09375 425.378906 493.417969 424.28125 492.757812 423.1875 C 491.953125 421.851562 491.160156 420.503906 490.378906 419.140625 C 489.746094 418.03125 489.097656 416.933594 488.460938 415.824219 C 487.695312 414.449219 486.929688 413.074219 486.175781 411.6875 C 485.566406 410.578125 484.960938 409.453125 484.367188 408.34375 C 483.625 406.929688 482.898438 405.503906 482.171875 404.074219 C 481.601562 402.964844 481.035156 401.855469 480.480469 400.746094 C 479.753906 399.277344 479.050781 397.796875 478.351562 396.316406 C 477.835938 395.21875 477.308594 394.136719 476.804688 393.027344 C 476.09375 391.464844 475.40625 389.90625 474.71875 388.335938 C 474.253906 387.289062 473.792969 386.257812 473.34375 385.203125 C 472.601562 383.457031 471.890625 381.6875 471.175781 379.914062 C 470.820312 379.03125 470.449219 378.15625 470.105469 377.273438 C 469.0625 374.617188 468.054688 371.933594 467.078125 369.238281 C 461.117188 352.625 456.570312 335.46875 453.558594 318.246094 C 450.4375 300.511719 448.851562 282.324219 448.851562 264.152344 C 448.851562 262.234375 448.867188 260.304688 448.90625 258.390625 C 448.917969 257.980469 448.933594 257.558594 448.945312 257.148438 C 448.984375 255.640625 449.011719 254.132812 449.0625 252.628906 C 449.078125 252.097656 449.117188 251.570312 449.144531 251.027344 C 449.195312 249.640625 449.261719 248.253906 449.328125 246.878906 C 449.367188 246.246094 449.40625 245.609375 449.449219 244.976562 C 449.527344 243.691406 449.605469 242.410156 449.699219 241.144531 C 449.75 240.441406 449.816406 239.753906 449.871094 239.054688 C 449.964844 237.839844 450.054688 236.636719 450.175781 235.417969 C 450.253906 234.625 450.332031 233.832031 450.414062 233.039062 C 450.519531 231.929688 450.625 230.832031 450.742188 229.722656 C 450.847656 228.757812 450.96875 227.792969 451.085938 226.828125 C 451.191406 225.902344 451.296875 224.980469 451.417969 224.054688 C 451.574219 222.878906 451.734375 221.699219 451.90625 220.523438 C 452 219.835938 452.089844 219.164062 452.195312 218.476562 C 452.234375 218.332031 452.261719 218.1875 452.300781 218.027344 L 478.535156 263.464844 C 478.640625 263.703125 478.640625 263.925781 478.640625 264.152344 Z M 424.785156 404.324219 C 415.679688 413.222656 406.058594 421.667969 396.105469 429.476562 C 387.382812 423.476562 378.371094 417.847656 369.183594 412.640625 C 385.109375 400.96875 399.953125 387.859375 413.5 373.503906 C 413.671875 374.035156 413.816406 374.5625 413.988281 375.078125 C 417.144531 384.964844 420.765625 394.757812 424.785156 404.324219 Z M 401.65625 324.261719 C 402.011719 326.429688 402.398438 328.597656 402.792969 330.75 C 404.667969 340.886719 407.007812 350.945312 409.746094 360.855469 C 394.296875 377.972656 376.953125 393.34375 358.121094 406.652344 C 347.867188 401.300781 337.265625 396.394531 326.441406 392.035156 C 355.242188 374.21875 380.90625 351.101562 401.65625 324.261719 Z M 399.371094 308.363281 C 376.703125 340.371094 346.914062 367.453125 312.960938 386.90625 C 299.148438 381.964844 284.996094 377.867188 270.65625 374.628906 C 301.953125 361.691406 330.417969 342.128906 353.8125 317.296875 C 371.535156 298.488281 386.046875 276.960938 396.847656 253.710938 C 396.753906 257.1875 396.6875 260.675781 396.6875 264.164062 C 396.6875 278.953125 397.597656 293.808594 399.371094 308.363281 Z M 407.390625 140.089844 C 407.628906 144.320312 407.75 148.628906 407.75 152.894531 C 407.75 163.046875 407.0625 173.316406 405.726562 183.414062 C 403.824219 191.765625 402.238281 200.132812 400.984375 208.300781 C 382.03125 284.398438 324.011719 346.410156 249.335938 370.464844 C 248.558594 370.347656 247.789062 370.226562 247.011719 370.109375 C 246.257812 369.988281 245.515625 369.871094 244.765625 369.765625 C 244.328125 369.699219 243.890625 369.632812 243.46875 369.578125 C 242.992188 369.515625 242.53125 369.449219 242.054688 369.382812 C 241.910156 369.355469 241.765625 369.34375 241.617188 369.316406 C 240.917969 369.222656 240.203125 369.117188 239.503906 369.023438 C 238.421875 368.878906 237.351562 368.746094 236.277344 368.617188 C 235.84375 368.5625 235.421875 368.496094 234.984375 368.457031 C 234.746094 368.429688 234.507812 368.390625 234.269531 368.363281 C 232.527344 368.152344 230.792969 367.953125 229.0625 367.78125 L 234.996094 357.511719 L 244.683594 340.730469 C 244.988281 340.621094 245.292969 340.503906 245.597656 340.398438 C 246.191406 340.1875 246.773438 339.976562 247.355469 339.765625 C 248.015625 339.527344 248.675781 339.273438 249.324219 339.035156 C 249.90625 338.824219 250.472656 338.601562 251.054688 338.375 C 251.714844 338.125 252.363281 337.859375 253.023438 337.609375 C 253.59375 337.386719 254.160156 337.160156 254.714844 336.921875 C 255.375 336.65625 256.023438 336.378906 256.671875 336.101562 C 257.226562 335.863281 257.78125 335.628906 258.335938 335.390625 C 259 335.113281 259.644531 334.820312 260.292969 334.53125 C 260.835938 334.292969 261.378906 334.042969 261.917969 333.789062 C 262.566406 333.5 263.214844 333.195312 263.863281 332.890625 C 264.402344 332.640625 264.933594 332.390625 265.460938 332.125 C 266.109375 331.820312 266.742188 331.503906 267.390625 331.1875 C 267.917969 330.921875 268.433594 330.671875 268.964844 330.40625 C 269.609375 330.074219 270.246094 329.757812 270.878906 329.414062 C 271.394531 329.152344 271.910156 328.886719 272.414062 328.609375 C 273.046875 328.265625 273.683594 327.933594 274.316406 327.589844 C 274.816406 327.3125 275.320312 327.035156 275.824219 326.757812 C 276.457031 326.402344 277.089844 326.058594 277.710938 325.6875 C 278.203125 325.410156 278.703125 325.121094 279.191406 324.84375 C 279.828125 324.472656 280.449219 324.101562 281.070312 323.730469 C 281.558594 323.441406 282.035156 323.152344 282.511719 322.859375 C 283.132812 322.476562 283.753906 322.09375 284.375 321.710938 C 284.847656 321.417969 285.3125 321.117188 285.789062 320.824219 C 286.410156 320.429688 287.03125 320.03125 287.636719 319.636719 C 288.101562 319.332031 288.5625 319.039062 289.011719 318.738281 C 289.632812 318.328125 290.242188 317.917969 290.863281 317.492188 C 291.3125 317.191406 291.761719 316.886719 292.210938 316.582031 C 292.820312 316.160156 293.425781 315.734375 294.035156 315.300781 C 294.472656 314.984375 294.921875 314.679688 295.355469 314.363281 C 295.964844 313.925781 296.558594 313.488281 297.167969 313.039062 C 297.601562 312.722656 298.027344 312.40625 298.449219 312.089844 C 299.042969 311.640625 299.640625 311.191406 300.234375 310.726562 C 300.65625 310.410156 301.078125 310.078125 301.488281 309.761719 C 302.082031 309.300781 302.664062 308.835938 303.246094 308.375 C 303.65625 308.042969 304.078125 307.714844 304.488281 307.382812 C 305.070312 306.90625 305.652344 306.433594 306.21875 305.957031 C 306.628906 305.625 307.027344 305.28125 307.4375 304.953125 C 308.019531 304.460938 308.585938 303.972656 309.15625 303.484375 C 309.550781 303.140625 309.949219 302.8125 310.332031 302.46875 C 310.898438 301.964844 311.46875 301.460938 312.023438 300.960938 C 312.40625 300.617188 312.789062 300.273438 313.171875 299.929688 C 313.726562 299.414062 314.296875 298.898438 314.851562 298.382812 C 315.222656 298.039062 315.605469 297.683594 315.972656 297.324219 C 316.53125 296.796875 317.070312 296.28125 317.613281 295.753906 C 317.984375 295.394531 318.351562 295.039062 318.710938 294.683594 C 319.253906 294.152344 319.792969 293.613281 320.324219 293.070312 C 320.679688 292.714844 321.035156 292.34375 321.394531 291.984375 C 321.921875 291.445312 322.449219 290.890625 322.980469 290.335938 C 323.324219 289.964844 323.679688 289.605469 324.023438 289.238281 C 324.550781 288.683594 325.066406 288.113281 325.582031 287.546875 C 325.925781 287.175781 326.257812 286.804688 326.601562 286.433594 C 327.117188 285.867188 327.632812 285.285156 328.132812 284.71875 C 328.464844 284.347656 328.792969 283.964844 329.125 283.59375 C 329.625 283.011719 330.128906 282.429688 330.632812 281.847656 C 330.949219 281.464844 331.277344 281.097656 331.597656 280.710938 C 332.085938 280.117188 332.574219 279.523438 333.0625 278.929688 C 333.378906 278.546875 333.699219 278.160156 334 277.777344 C 334.492188 277.183594 334.964844 276.574219 335.441406 275.96875 C 335.746094 275.570312 336.0625 275.1875 336.367188 274.792969 C 336.84375 274.183594 337.304688 273.574219 337.769531 272.953125 C 338.070312 272.558594 338.363281 272.160156 338.667969 271.765625 C 339.128906 271.144531 339.578125 270.523438 340.027344 269.902344 C 340.320312 269.503906 340.609375 269.09375 340.902344 268.699219 C 341.351562 268.078125 341.785156 267.441406 342.222656 266.808594 C 342.511719 266.398438 342.789062 265.988281 343.082031 265.578125 C 343.515625 264.945312 343.941406 264.3125 344.375 263.664062 C 344.652344 263.253906 344.929688 262.84375 345.210938 262.421875 C 345.632812 261.773438 346.054688 261.125 346.464844 260.476562 C 346.730469 260.054688 347.007812 259.644531 347.269531 259.222656 C 347.679688 258.574219 348.078125 257.925781 348.488281 257.265625 C 348.75 256.84375 349.015625 256.40625 349.28125 255.984375 C 349.675781 255.324219 350.058594 254.664062 350.457031 254.003906 C 350.707031 253.566406 350.972656 253.144531 351.210938 252.707031 C 351.59375 252.046875 351.976562 251.371094 352.347656 250.699219 C 352.597656 250.261719 352.835938 249.824219 353.085938 249.390625 C 353.457031 248.730469 353.8125 248.054688 354.183594 247.378906 C 354.421875 246.929688 354.671875 246.496094 354.910156 246.046875 C 355.265625 245.371094 355.609375 244.699219 355.96875 244.023438 C 356.207031 243.574219 356.441406 243.125 356.667969 242.664062 C 357.011719 241.988281 357.34375 241.300781 357.683594 240.613281 C 357.910156 240.152344 358.136719 239.703125 358.359375 239.238281 C 358.691406 238.550781 359.007812 237.863281 359.324219 237.175781 C 359.535156 236.714844 359.761719 236.253906 359.972656 235.777344 C 360.289062 235.089844 360.59375 234.402344 360.898438 233.703125 C 361.109375 233.226562 361.320312 232.761719 361.53125 232.289062 C 361.835938 231.601562 362.125 230.898438 362.417969 230.199219 C 362.613281 229.722656 362.828125 229.246094 363.023438 228.757812 C 363.316406 228.058594 363.59375 227.359375 363.871094 226.65625 C 364.070312 226.167969 364.265625 225.691406 364.453125 225.203125 C 364.730469 224.503906 364.996094 223.789062 365.257812 223.089844 C 365.445312 222.601562 365.628906 222.109375 365.8125 221.621094 C 366.078125 220.921875 366.328125 220.207031 366.582031 219.492188 C 366.75 219.003906 366.9375 218.503906 367.109375 218.015625 C 367.359375 217.300781 367.585938 216.585938 367.824219 215.871094 C 367.996094 215.371094 368.167969 214.867188 368.324219 214.367188 C 368.550781 213.652344 368.773438 212.9375 369 212.226562 C 369.15625 211.710938 369.316406 211.207031 369.472656 210.691406 C 369.6875 209.976562 369.898438 209.25 370.109375 208.539062 C 370.253906 208.023438 370.414062 207.507812 370.558594 206.992188 C 370.757812 206.277344 370.953125 205.5625 371.140625 204.851562 C 371.285156 204.320312 371.429688 203.792969 371.5625 203.277344 C 371.746094 202.5625 371.917969 201.835938 372.105469 201.125 C 372.238281 200.59375 372.367188 200.066406 372.5 199.539062 C 372.671875 198.824219 372.832031 198.097656 373.003906 197.382812 C 373.121094 196.839844 373.253906 196.300781 373.375 195.757812 C 373.53125 195.042969 373.675781 194.316406 373.824219 193.601562 C 373.941406 193.0625 374.0625 192.507812 374.167969 191.964844 C 374.3125 191.25 374.445312 190.523438 374.574219 189.808594 C 374.683594 189.253906 374.789062 188.699219 374.894531 188.144531 C 375.027344 187.429688 375.144531 186.703125 375.261719 185.992188 C 375.355469 185.421875 375.460938 184.867188 375.554688 184.296875 C 375.671875 183.570312 375.777344 182.84375 375.882812 182.117188 C 375.964844 181.5625 376.054688 181.007812 376.136719 180.4375 C 376.242188 179.699219 376.332031 178.972656 376.425781 178.230469 C 376.492188 177.675781 376.570312 177.121094 376.636719 176.554688 C 376.730469 175.8125 376.796875 175.074219 376.875 174.332031 C 376.941406 173.777344 377.007812 173.210938 377.0625 172.65625 C 377.140625 171.914062 377.191406 171.160156 377.257812 170.421875 C 377.3125 169.851562 377.363281 169.296875 377.40625 168.730469 C 377.46875 167.964844 377.511719 167.195312 377.5625 166.441406 C 377.601562 165.886719 377.640625 165.347656 377.683594 164.792969 C 377.734375 164 377.761719 163.207031 377.800781 162.414062 C 377.828125 161.882812 377.855469 161.355469 377.878906 160.824219 C 377.917969 159.925781 377.933594 159.027344 377.960938 158.128906 C 377.972656 157.707031 377.984375 157.285156 378 156.859375 C 378.027344 155.539062 378.039062 154.203125 378.039062 152.871094 C 378.039062 151.257812 378.011719 149.644531 377.972656 148.046875 C 377.960938 147.53125 377.933594 147 377.917969 146.484375 C 377.878906 145.402344 377.855469 144.304688 377.800781 143.222656 C 377.773438 142.601562 377.734375 141.992188 377.695312 141.382812 C 377.640625 140.394531 377.578125 139.390625 377.511719 138.398438 C 377.457031 137.75 377.40625 137.101562 377.351562 136.46875 C 377.273438 135.503906 377.191406 134.550781 377.101562 133.601562 C 377.035156 132.9375 376.953125 132.277344 376.890625 131.605469 C 376.78125 130.667969 376.691406 129.726562 376.570312 128.800781 C 376.492188 128.128906 376.398438 127.453125 376.308594 126.792969 C 376.1875 125.867188 376.070312 124.957031 375.925781 124.03125 C 375.832031 123.359375 375.726562 122.683594 375.621094 122.007812 C 375.476562 121.097656 375.328125 120.1875 375.171875 119.273438 C 375.050781 118.597656 374.933594 117.9375 374.8125 117.265625 C 374.722656 116.75 374.640625 116.234375 374.535156 115.71875 L 383.921875 99.476562 Z M 365.535156 131.417969 C 365.574219 131.804688 365.628906 132.1875 365.667969 132.582031 C 365.773438 133.613281 365.878906 134.644531 365.972656 135.6875 C 366.039062 136.363281 366.089844 137.023438 366.144531 137.699219 C 366.222656 138.742188 366.300781 139.796875 366.367188 140.84375 C 366.410156 141.492188 366.449219 142.125 366.488281 142.773438 C 366.554688 143.910156 366.59375 145.058594 366.632812 146.195312 C 366.644531 146.75 366.6875 147.292969 366.699219 147.847656 C 366.738281 149.539062 366.765625 151.21875 366.765625 152.910156 C 366.765625 154.125 366.75 155.355469 366.726562 156.570312 C 366.710938 156.96875 366.699219 157.363281 366.6875 157.773438 C 366.660156 158.59375 366.644531 159.398438 366.605469 160.21875 C 366.59375 160.695312 366.566406 161.167969 366.539062 161.644531 C 366.5 162.371094 366.472656 163.113281 366.433594 163.839844 C 366.410156 164.339844 366.367188 164.855469 366.34375 165.359375 C 366.300781 166.058594 366.25 166.761719 366.195312 167.449219 C 366.15625 167.976562 366.105469 168.492188 366.066406 169.019531 C 366.011719 169.695312 365.945312 170.382812 365.878906 171.054688 C 365.828125 171.585938 365.773438 172.113281 365.722656 172.65625 C 365.65625 173.316406 365.574219 173.988281 365.496094 174.652344 C 365.429688 175.179688 365.363281 175.707031 365.296875 176.25 C 365.21875 176.910156 365.125 177.570312 365.046875 178.230469 C 364.980469 178.761719 364.902344 179.289062 364.824219 179.816406 C 364.730469 180.480469 364.625 181.140625 364.53125 181.800781 C 364.453125 182.316406 364.371094 182.84375 364.28125 183.359375 C 364.175781 184.019531 364.054688 184.683594 363.9375 185.34375 C 363.84375 185.859375 363.75 186.375 363.660156 186.875 C 363.539062 187.550781 363.40625 188.210938 363.277344 188.882812 C 363.183594 189.386719 363.078125 189.890625 362.984375 190.378906 C 362.839844 191.066406 362.695312 191.738281 362.550781 192.425781 C 362.441406 192.902344 362.351562 193.378906 362.246094 193.855469 C 362.085938 194.566406 361.914062 195.28125 361.757812 195.980469 C 361.648438 196.417969 361.558594 196.867188 361.4375 197.304688 C 361.253906 198.082031 361.054688 198.863281 360.855469 199.644531 C 360.765625 200.011719 360.671875 200.371094 360.578125 200.738281 C 360.300781 201.769531 360.023438 202.800781 359.734375 203.832031 C 359.707031 203.9375 359.679688 204.042969 359.65625 204.148438 C 359.324219 205.300781 358.992188 206.4375 358.648438 207.574219 C 358.570312 207.8125 358.503906 208.046875 358.425781 208.300781 C 358.148438 209.183594 357.882812 210.070312 357.59375 210.941406 C 357.472656 211.328125 357.339844 211.695312 357.222656 212.066406 C 356.972656 212.804688 356.734375 213.546875 356.484375 214.285156 C 356.335938 214.710938 356.191406 215.121094 356.046875 215.542969 C 355.808594 216.230469 355.558594 216.917969 355.304688 217.605469 C 355.148438 218.039062 354.976562 218.476562 354.816406 218.914062 C 354.566406 219.574219 354.316406 220.234375 354.0625 220.894531 C 353.890625 221.34375 353.707031 221.792969 353.535156 222.230469 C 353.285156 222.878906 353.019531 223.511719 352.753906 224.160156 C 352.570312 224.609375 352.386719 225.058594 352.199219 225.507812 C 351.9375 226.140625 351.660156 226.777344 351.394531 227.410156 C 351.195312 227.859375 351.011719 228.296875 350.8125 228.746094 C 350.535156 229.378906 350.257812 230 349.96875 230.636719 C 349.769531 231.070312 349.570312 231.507812 349.359375 231.945312 C 349.066406 232.578125 348.765625 233.199219 348.472656 233.832031 C 348.273438 234.257812 348.0625 234.679688 347.867188 235.101562 C 347.5625 235.738281 347.246094 236.371094 346.925781 237.003906 C 346.714844 237.414062 346.515625 237.824219 346.304688 238.234375 C 345.976562 238.882812 345.644531 239.515625 345.300781 240.164062 C 345.089844 240.5625 344.890625 240.945312 344.679688 241.339844 C 344.324219 242.015625 343.953125 242.675781 343.597656 243.351562 C 343.398438 243.707031 343.214844 244.0625 343.015625 244.40625 C 342.605469 245.132812 342.195312 245.859375 341.773438 246.585938 C 341.613281 246.878906 341.457031 247.15625 341.285156 247.445312 C 340.753906 248.359375 340.214844 249.257812 339.671875 250.15625 C 339.617188 250.25 339.550781 250.339844 339.5 250.445312 C 338.878906 251.464844 338.257812 252.46875 337.609375 253.472656 C 337.597656 253.5 337.582031 253.511719 337.570312 253.539062 C 336.960938 254.503906 336.339844 255.457031 335.707031 256.40625 C 335.546875 256.660156 335.375 256.898438 335.21875 257.132812 C 334.726562 257.863281 334.253906 258.574219 333.75 259.300781 C 333.539062 259.617188 333.3125 259.921875 333.089844 260.242188 C 332.640625 260.886719 332.191406 261.523438 331.742188 262.15625 C 331.492188 262.5 331.238281 262.84375 331 263.1875 C 330.566406 263.78125 330.128906 264.390625 329.679688 264.984375 C 329.414062 265.34375 329.152344 265.699219 328.886719 266.042969 C 328.449219 266.625 328.015625 267.191406 327.578125 267.761719 C 327.300781 268.117188 327.023438 268.488281 326.734375 268.84375 C 326.296875 269.398438 325.847656 269.953125 325.410156 270.507812 C 325.121094 270.867188 324.828125 271.222656 324.539062 271.578125 C 324.089844 272.121094 323.640625 272.675781 323.191406 273.21875 C 322.886719 273.574219 322.59375 273.933594 322.292969 274.289062 C 321.84375 274.832031 321.378906 275.359375 320.917969 275.886719 C 320.613281 276.230469 320.308594 276.589844 320.003906 276.933594 C 319.53125 277.460938 319.054688 278.003906 318.578125 278.53125 C 318.273438 278.875 317.96875 279.207031 317.664062 279.535156 C 317.175781 280.078125 316.675781 280.605469 316.171875 281.148438 C 315.867188 281.464844 315.578125 281.78125 315.273438 282.101562 C 314.746094 282.65625 314.230469 283.199219 313.699219 283.738281 C 313.410156 284.03125 313.132812 284.320312 312.84375 284.613281 C 312.273438 285.191406 311.691406 285.761719 311.125 286.328125 C 310.871094 286.582031 310.621094 286.832031 310.371094 287.082031 C 309.683594 287.757812 308.996094 288.40625 308.308594 289.066406 C 308.148438 289.210938 308.003906 289.355469 307.847656 289.5 C 306.128906 291.113281 304.382812 292.714844 302.597656 294.257812 C 302.402344 294.429688 302.191406 294.601562 301.992188 294.773438 C 301.304688 295.371094 300.628906 295.953125 299.941406 296.53125 C 299.640625 296.785156 299.347656 297.023438 299.042969 297.273438 C 298.4375 297.773438 297.839844 298.277344 297.234375 298.765625 C 296.890625 299.042969 296.546875 299.308594 296.214844 299.585938 C 295.648438 300.046875 295.066406 300.496094 294.484375 300.945312 C 294.113281 301.238281 293.746094 301.515625 293.375 301.804688 C 292.820312 302.242188 292.25 302.664062 291.683594 303.089844 C 291.300781 303.378906 290.902344 303.65625 290.519531 303.945312 C 289.964844 304.355469 289.394531 304.765625 288.839844 305.175781 C 288.445312 305.46875 288.035156 305.746094 287.636719 306.035156 C 287.082031 306.433594 286.515625 306.828125 285.960938 307.210938 C 285.550781 307.488281 285.140625 307.78125 284.730469 308.058594 C 284.164062 308.441406 283.59375 308.824219 283.027344 309.207031 C 282.601562 309.484375 282.191406 309.761719 281.769531 310.027344 C 281.203125 310.398438 280.621094 310.765625 280.039062 311.136719 C 279.617188 311.402344 279.191406 311.679688 278.769531 311.941406 C 278.1875 312.3125 277.59375 312.671875 277 313.027344 C 276.574219 313.277344 276.152344 313.542969 275.730469 313.792969 C 275.121094 314.164062 274.515625 314.519531 273.894531 314.878906 C 273.484375 315.113281 273.074219 315.367188 272.652344 315.605469 C 272.015625 315.972656 271.367188 316.332031 270.722656 316.6875 C 270.324219 316.914062 269.929688 317.136719 269.53125 317.347656 C 268.832031 317.730469 268.117188 318.113281 267.402344 318.484375 C 267.058594 318.671875 266.730469 318.855469 266.386719 319.027344 C 265.449219 319.515625 264.507812 320.003906 263.558594 320.480469 C 263.4375 320.546875 263.320312 320.601562 263.199219 320.664062 C 262.128906 321.195312 261.058594 321.722656 259.976562 322.238281 C 259.644531 322.398438 259.316406 322.542969 258.972656 322.703125 C 258.21875 323.058594 257.464844 323.402344 256.710938 323.746094 C 256.277344 323.945312 255.839844 324.128906 255.417969 324.328125 C 254.859375 324.578125 254.304688 324.816406 253.75 325.054688 Z M 121.414062 554.242188 C 121.835938 554.070312 122.261719 553.898438 122.683594 553.738281 C 123.359375 553.472656 124.042969 553.210938 124.730469 552.945312 C 125.460938 552.667969 126.171875 552.402344 126.898438 552.140625 C 127.585938 551.886719 128.273438 551.636719 128.960938 551.398438 C 129.6875 551.148438 130.414062 550.898438 131.140625 550.660156 C 131.828125 550.433594 132.515625 550.195312 133.203125 549.972656 C 133.945312 549.734375 134.683594 549.507812 135.410156 549.269531 C 136.097656 549.058594 136.785156 548.847656 137.472656 548.636719 C 138.214844 548.410156 138.964844 548.199219 139.707031 547.988281 C 140.394531 547.789062 141.09375 547.59375 141.78125 547.40625 C 142.535156 547.210938 143.273438 547.011719 144.027344 546.824219 C 144.730469 546.640625 145.414062 546.46875 146.117188 546.296875 C 146.871094 546.113281 147.636719 545.941406 148.402344 545.753906 C 149.089844 545.597656 149.789062 545.4375 150.476562 545.28125 C 151.246094 545.109375 152.023438 544.949219 152.789062 544.789062 C 153.476562 544.644531 154.164062 544.5 154.867188 544.367188 C 155.644531 544.222656 156.4375 544.078125 157.21875 543.929688 C 157.90625 543.8125 158.59375 543.679688 159.265625 543.5625 C 160.058594 543.429688 160.851562 543.308594 161.660156 543.179688 C 162.347656 543.074219 163.019531 542.964844 163.707031 542.859375 C 164.515625 542.742188 165.320312 542.636719 166.125 542.53125 C 166.800781 542.4375 167.472656 542.34375 168.148438 542.265625 C 168.980469 542.160156 169.8125 542.082031 170.644531 541.988281 C 171.308594 541.921875 171.96875 541.84375 172.628906 541.777344 C 173.488281 541.699219 174.347656 541.632812 175.191406 541.566406 C 175.839844 541.511719 176.472656 541.445312 177.121094 541.40625 C 178.019531 541.339844 178.933594 541.300781 179.832031 541.25 C 180.425781 541.210938 181.035156 541.167969 181.628906 541.144531 C 182.632812 541.089844 183.636719 541.0625 184.640625 541.039062 C 185.144531 541.023438 185.648438 540.996094 186.164062 540.984375 C 187.667969 540.945312 189.1875 540.929688 190.707031 540.929688 C 192.785156 540.929688 194.84375 540.972656 196.90625 541.039062 C 197.238281 541.050781 197.554688 541.050781 197.886719 541.0625 C 199.855469 541.144531 201.808594 541.234375 203.765625 541.367188 C 204.148438 541.394531 204.519531 541.421875 204.902344 541.445312 C 206.871094 541.59375 208.828125 541.765625 210.785156 541.960938 C 211.035156 541.988281 211.285156 542.015625 211.539062 542.042969 C 213.453125 542.253906 215.371094 542.492188 217.273438 542.753906 C 217.457031 542.78125 217.644531 542.808594 217.84375 542.835938 C 219.796875 543.113281 221.742188 543.429688 223.683594 543.773438 C 224.039062 543.839844 224.410156 543.90625 224.765625 543.972656 C 226.65625 544.316406 228.546875 544.683594 230.425781 545.09375 C 230.78125 545.175781 231.125 545.253906 231.480469 545.332031 C 233.410156 545.753906 235.339844 546.203125 237.242188 546.695312 C 237.375 546.734375 237.507812 546.761719 237.640625 546.800781 C 239.503906 547.273438 241.355469 547.789062 243.191406 548.320312 C 243.46875 548.398438 243.757812 548.476562 244.039062 548.558594 C 245.875 549.097656 247.710938 549.679688 249.535156 550.277344 C 249.90625 550.394531 250.261719 550.511719 250.632812 550.644531 C 252.441406 551.253906 254.253906 551.886719 256.050781 552.5625 C 256.339844 552.667969 256.632812 552.785156 256.921875 552.890625 C 258.734375 553.578125 260.542969 554.28125 262.328125 555.019531 C 262.421875 555.058594 262.515625 555.097656 262.605469 555.125 C 264.429688 555.890625 266.253906 556.683594 268.050781 557.503906 C 268.367188 557.648438 268.6875 557.796875 269.003906 557.941406 C 270.746094 558.746094 272.464844 559.578125 274.183594 560.4375 C 274.515625 560.609375 274.84375 560.769531 275.175781 560.941406 C 276.917969 561.828125 278.664062 562.738281 280.382812 563.675781 C 280.566406 563.78125 280.738281 563.875 280.925781 563.980469 C 282.601562 564.90625 284.28125 565.871094 285.933594 566.847656 C 286.132812 566.96875 286.328125 567.074219 286.527344 567.191406 C 288.21875 568.195312 289.898438 569.242188 291.550781 570.3125 C 291.707031 570.417969 291.878906 570.523438 292.039062 570.628906 L 111.9375 570.628906 Z M 311.691406 570.683594 C 311.386719 570.445312 311.085938 570.21875 310.765625 569.996094 C 310.238281 569.597656 309.710938 569.1875 309.167969 568.792969 C 308.585938 568.367188 308.019531 567.933594 307.4375 567.507812 C 306.894531 567.113281 306.367188 566.730469 305.824219 566.347656 C 305.242188 565.9375 304.648438 565.515625 304.066406 565.105469 C 303.523438 564.722656 302.984375 564.351562 302.441406 563.980469 C 301.847656 563.570312 301.25 563.175781 300.65625 562.777344 C 300.113281 562.40625 299.558594 562.050781 299.015625 561.695312 C 298.421875 561.296875 297.816406 560.914062 297.207031 560.53125 C 296.652344 560.175781 296.109375 559.832031 295.554688 559.488281 C 294.945312 559.105469 294.339844 558.734375 293.730469 558.363281 C 293.175781 558.019531 292.621094 557.691406 292.050781 557.359375 C 291.429688 556.988281 290.824219 556.632812 290.203125 556.277344 C 289.648438 555.945312 289.078125 555.628906 288.523438 555.3125 C 287.902344 554.953125 287.269531 554.609375 286.648438 554.265625 C 286.078125 553.949219 285.523438 553.644531 284.957031 553.339844 C 284.320312 552.996094 283.6875 552.667969 283.050781 552.335938 C 282.484375 552.03125 281.914062 551.742188 281.347656 551.4375 C 280.710938 551.109375 280.066406 550.789062 279.429688 550.472656 C 278.863281 550.183594 278.28125 549.90625 277.710938 549.613281 C 277.066406 549.296875 276.417969 548.992188 275.769531 548.675781 C 275.1875 548.398438 274.621094 548.132812 274.039062 547.855469 C 273.390625 547.550781 272.730469 547.261719 272.082031 546.972656 C 271.5 546.707031 270.917969 546.441406 270.335938 546.191406 C 269.675781 545.902344 269.015625 545.625 268.355469 545.34375 C 267.773438 545.09375 267.191406 544.855469 266.609375 544.605469 C 265.9375 544.328125 265.261719 544.0625 264.601562 543.785156 C 264.019531 543.546875 263.4375 543.308594 262.84375 543.085938 C 262.171875 542.820312 261.496094 542.570312 260.808594 542.320312 C 260.226562 542.09375 259.632812 541.871094 259.039062 541.660156 C 258.351562 541.40625 257.675781 541.167969 256.988281 540.929688 C 256.394531 540.71875 255.8125 540.507812 255.21875 540.308594 C 254.53125 540.070312 253.84375 539.847656 253.144531 539.621094 C 252.546875 539.425781 251.953125 539.226562 251.359375 539.042969 C 250.660156 538.816406 249.972656 538.605469 249.269531 538.394531 C 248.675781 538.207031 248.082031 538.023438 247.472656 537.851562 C 246.773438 537.640625 246.074219 537.441406 245.371094 537.242188 C 244.777344 537.070312 244.167969 536.898438 243.574219 536.742188 C 242.859375 536.542969 242.148438 536.359375 241.445312 536.171875 C 240.851562 536.015625 240.242188 535.855469 239.648438 535.710938 C 238.933594 535.527344 238.222656 535.367188 237.507812 535.195312 C 236.898438 535.050781 236.304688 534.90625 235.699219 534.757812 C 234.984375 534.601562 234.257812 534.441406 233.53125 534.285156 C 232.921875 534.152344 232.328125 534.019531 231.71875 533.886719 C 230.992188 533.742188 230.265625 533.597656 229.539062 533.449219 C 228.929688 533.332031 228.324219 533.214844 227.714844 533.09375 C 226.988281 532.960938 226.246094 532.828125 225.519531 532.710938 C 224.914062 532.605469 224.304688 532.5 223.695312 532.394531 C 222.957031 532.273438 222.214844 532.15625 221.464844 532.050781 C 220.855469 531.957031 220.261719 531.863281 219.652344 531.773438 C 218.898438 531.667969 218.144531 531.574219 217.394531 531.46875 C 216.785156 531.390625 216.191406 531.308594 215.582031 531.230469 C 214.816406 531.136719 214.0625 531.058594 213.296875 530.964844 C 212.699219 530.898438 212.09375 530.820312 211.5 530.769531 C 210.730469 530.6875 209.953125 530.621094 209.171875 530.554688 C 208.578125 530.503906 207.984375 530.4375 207.386719 530.398438 C 206.59375 530.332031 205.816406 530.277344 205.023438 530.226562 C 204.441406 530.1875 203.859375 530.132812 203.265625 530.105469 C 202.445312 530.054688 201.625 530.027344 200.820312 529.988281 C 200.25 529.960938 199.695312 529.921875 199.128906 529.910156 C 198.214844 529.871094 197.304688 529.855469 196.390625 529.828125 C 195.914062 529.816406 195.453125 529.804688 194.976562 529.789062 C 193.589844 529.761719 192.203125 529.75 190.800781 529.75 C 189.308594 529.75 187.828125 529.777344 186.347656 529.804688 C 185.882812 529.816406 185.421875 529.828125 184.960938 529.84375 C 183.914062 529.871094 182.882812 529.910156 181.839844 529.949219 C 181.324219 529.976562 180.808594 530 180.292969 530.027344 C 179.25 530.082031 178.191406 530.148438 177.148438 530.210938 C 176.710938 530.238281 176.261719 530.265625 175.828125 530.304688 C 174.347656 530.410156 172.878906 530.53125 171.414062 530.675781 C 171.308594 530.6875 171.214844 530.703125 171.109375 530.703125 C 169.746094 530.835938 168.371094 530.980469 167.011719 531.152344 C 166.550781 531.203125 166.101562 531.269531 165.636719 531.324219 C 164.605469 531.457031 163.589844 531.585938 162.570312 531.734375 C 162.082031 531.796875 161.578125 531.878906 161.089844 531.945312 C 160.035156 532.101562 158.976562 532.273438 157.917969 532.445312 C 157.507812 532.511719 157.097656 532.578125 156.703125 532.644531 C 155.25 532.894531 153.808594 533.160156 152.367188 533.4375 C 152.195312 533.464844 152.039062 533.503906 151.867188 533.542969 C 150.597656 533.792969 149.328125 534.058594 148.058594 534.335938 C 147.609375 534.441406 147.148438 534.535156 146.699219 534.640625 C 145.695312 534.863281 144.6875 535.101562 143.683594 535.339844 C 143.207031 535.460938 142.734375 535.578125 142.257812 535.699219 C 141.199219 535.960938 140.140625 536.238281 139.085938 536.53125 C 138.714844 536.636719 138.34375 536.730469 137.976562 536.835938 C 136.5625 537.230469 135.132812 537.628906 133.71875 538.050781 C 133.507812 538.117188 133.296875 538.183594 133.085938 538.25 C 132.132812 538.539062 131.167969 538.828125 130.21875 539.132812 L 150.753906 503.554688 C 151.257812 503.460938 151.746094 503.382812 152.25 503.289062 C 153.003906 503.160156 153.753906 503.039062 154.523438 502.921875 C 155.472656 502.777344 156.425781 502.628906 157.375 502.484375 C 158.144531 502.378906 158.898438 502.261719 159.664062 502.15625 C 160.613281 502.023438 161.578125 501.902344 162.53125 501.785156 C 163.296875 501.691406 164.0625 501.597656 164.832031 501.507812 C 165.796875 501.402344 166.773438 501.296875 167.738281 501.203125 C 168.492188 501.125 169.246094 501.042969 170.011719 500.976562 C 171.003906 500.886719 172.007812 500.804688 173 500.738281 C 173.738281 500.6875 174.464844 500.621094 175.207031 500.570312 C 176.25 500.503906 177.292969 500.4375 178.339844 500.382812 C 179.023438 500.34375 179.710938 500.304688 180.398438 500.265625 C 181.550781 500.210938 182.710938 500.171875 183.875 500.144531 C 184.457031 500.132812 185.027344 500.105469 185.605469 500.09375 C 187.339844 500.054688 189.070312 500.027344 190.8125 500.027344 C 211.207031 500.027344 231.414062 502.710938 250.871094 508.007812 C 253.210938 508.644531 255.535156 509.332031 257.847656 510.03125 C 258.097656 510.109375 258.363281 510.191406 258.613281 510.257812 C 260.808594 510.929688 262.988281 511.65625 265.15625 512.398438 C 265.515625 512.515625 265.859375 512.636719 266.214844 512.753906 C 268.34375 513.492188 270.445312 514.261719 272.546875 515.066406 C 272.914062 515.210938 273.273438 515.34375 273.640625 515.488281 C 275.742188 516.308594 277.832031 517.140625 279.90625 518.027344 C 280.210938 518.160156 280.515625 518.292969 280.820312 518.421875 C 282.960938 519.335938 285.085938 520.273438 287.1875 521.253906 C 287.347656 521.316406 287.492188 521.398438 287.636719 521.464844 C 289.753906 522.453125 291.839844 523.472656 293.929688 524.515625 C 294.085938 524.597656 294.234375 524.660156 294.390625 524.742188 C 296.453125 525.785156 298.503906 526.882812 300.523438 527.992188 C 300.828125 528.152344 301.117188 528.308594 301.421875 528.480469 C 303.378906 529.566406 305.320312 530.675781 307.238281 531.8125 C 307.582031 532.011719 307.925781 532.222656 308.269531 532.421875 C 310.171875 533.554688 312.0625 534.734375 313.925781 535.921875 C 314.242188 536.132812 314.574219 536.332031 314.890625 536.542969 C 316.792969 537.773438 318.671875 539.027344 320.535156 540.308594 C 320.757812 540.46875 320.984375 540.628906 321.222656 540.785156 C 323.164062 542.132812 325.09375 543.523438 326.996094 544.9375 C 327.023438 544.949219 327.050781 544.976562 327.074219 544.988281 C 328.980469 546.402344 330.855469 547.855469 332.71875 549.335938 C 332.945312 549.507812 333.15625 549.679688 333.378906 549.851562 C 335.152344 551.265625 336.910156 552.71875 338.640625 554.199219 C 338.929688 554.453125 339.222656 554.691406 339.511719 554.941406 C 341.203125 556.394531 342.882812 557.886719 344.546875 559.394531 C 344.839844 559.660156 345.128906 559.921875 345.421875 560.1875 C 347.085938 561.722656 348.738281 563.28125 350.351562 564.867188 C 350.589844 565.089844 350.8125 565.328125 351.050781 565.554688 C 352.730469 567.207031 354.382812 568.882812 356.019531 570.589844 C 356.046875 570.617188 356.074219 570.640625 356.097656 570.683594 Z M 371.3125 570.683594 C 371.101562 570.429688 370.875 570.191406 370.664062 569.953125 C 370.1875 569.414062 369.699219 568.871094 369.210938 568.328125 C 368.695312 567.746094 368.179688 567.179688 367.652344 566.609375 C 367.160156 566.082031 366.671875 565.554688 366.183594 565.023438 C 365.65625 564.457031 365.125 563.902344 364.597656 563.332031 C 364.109375 562.816406 363.605469 562.289062 363.105469 561.773438 C 362.5625 561.21875 362.019531 560.664062 361.480469 560.109375 C 360.976562 559.605469 360.472656 559.089844 359.972656 558.589844 C 359.417969 558.046875 358.875 557.492188 358.320312 556.949219 C 357.816406 556.449219 357.300781 555.957031 356.785156 555.46875 C 356.21875 554.925781 355.664062 554.386719 355.09375 553.855469 C 354.578125 553.382812 354.078125 552.890625 353.5625 552.417969 C 352.980469 551.886719 352.410156 551.359375 351.832031 550.832031 C 351.316406 550.355469 350.800781 549.890625 350.269531 549.429688 C 349.691406 548.902344 349.09375 548.386719 348.511719 547.871094 C 347.984375 547.40625 347.46875 546.957031 346.941406 546.496094 C 346.34375 545.980469 345.75 545.476562 345.144531 544.976562 C 344.613281 544.527344 344.085938 544.078125 343.542969 543.640625 C 342.9375 543.136719 342.328125 542.636719 341.71875 542.148438 C 341.191406 541.710938 340.648438 541.273438 340.109375 540.851562 C 339.488281 540.363281 338.863281 539.875 338.242188 539.386719 C 337.703125 538.960938 337.160156 538.539062 336.617188 538.117188 C 335.996094 537.640625 335.363281 537.152344 334.726562 536.675781 C 334.1875 536.265625 333.632812 535.855469 333.089844 535.445312 C 332.457031 534.972656 331.808594 534.507812 331.171875 534.046875 C 330.617188 533.648438 330.078125 533.253906 329.519531 532.855469 C 328.875 532.394531 328.210938 531.929688 327.566406 531.480469 C 327.011719 531.097656 326.453125 530.714844 325.898438 530.332031 C 325.238281 529.882812 324.566406 529.433594 323.902344 528.984375 C 323.347656 528.613281 322.792969 528.242188 322.238281 527.875 C 321.566406 527.4375 320.890625 527 320.214844 526.566406 C 319.648438 526.207031 319.09375 525.839844 318.523438 525.480469 C 317.851562 525.058594 317.164062 524.636719 316.476562 524.210938 C 315.910156 523.855469 315.339844 523.511719 314.773438 523.167969 C 314.085938 522.746094 313.382812 522.335938 312.695312 521.925781 C 312.128906 521.582031 311.558594 521.253906 310.976562 520.921875 C 310.277344 520.511719 309.5625 520.117188 308.863281 519.71875 C 308.28125 519.386719 307.714844 519.070312 307.132812 518.742188 C 306.417969 518.34375 305.707031 517.960938 304.992188 517.578125 C 304.410156 517.261719 303.839844 516.945312 303.261719 516.640625 C 302.53125 516.257812 301.804688 515.886719 301.078125 515.503906 C 300.496094 515.199219 299.917969 514.894531 299.335938 514.605469 C 298.609375 514.234375 297.867188 513.878906 297.128906 513.507812 C 296.546875 513.214844 295.953125 512.925781 295.371094 512.636719 C 294.628906 512.277344 293.875 511.921875 293.136719 511.578125 C 292.554688 511.300781 291.960938 511.023438 291.378906 510.746094 C 290.613281 510.386719 289.84375 510.042969 289.078125 509.699219 C 288.496094 509.4375 287.929688 509.1875 287.347656 508.921875 C 286.566406 508.578125 285.773438 508.246094 284.980469 507.902344 C 284.414062 507.664062 283.84375 507.414062 283.261719 507.175781 C 282.46875 506.847656 281.664062 506.515625 280.859375 506.199219 C 280.289062 505.972656 279.722656 505.734375 279.152344 505.511719 C 278.332031 505.179688 277.5 504.878906 276.683594 504.558594 C 276.125 504.347656 275.570312 504.125 275.015625 503.925781 C 274.15625 503.609375 273.296875 503.292969 272.4375 502.988281 C 271.910156 502.789062 271.382812 502.589844 270.839844 502.40625 C 269.929688 502.089844 269.003906 501.769531 268.078125 501.453125 C 267.589844 501.296875 267.113281 501.125 266.636719 500.964844 C 265.621094 500.621094 264.589844 500.304688 263.558594 499.972656 C 263.175781 499.855469 262.792969 499.722656 262.394531 499.605469 C 261.140625 499.207031 259.882812 498.835938 258.628906 498.46875 C 258.457031 498.414062 258.285156 498.363281 258.125 498.308594 C 256.683594 497.886719 255.246094 497.476562 253.789062 497.09375 C 239.753906 493.273438 225.335938 490.75 210.757812 489.53125 C 204.125 488.992188 197.460938 488.714844 190.773438 488.714844 C 189.097656 488.714844 187.417969 488.738281 185.738281 488.765625 C 185.261719 488.78125 184.773438 488.792969 184.296875 488.804688 C 183.003906 488.84375 181.707031 488.886719 180.425781 488.9375 C 179.988281 488.953125 179.554688 488.976562 179.117188 488.992188 C 177.453125 489.070312 175.773438 489.164062 174.109375 489.28125 C 173.832031 489.296875 173.566406 489.320312 173.289062 489.347656 C 171.875 489.453125 170.460938 489.574219 169.046875 489.691406 C 168.558594 489.730469 168.054688 489.785156 167.566406 489.835938 C 166.230469 489.96875 164.898438 490.101562 163.5625 490.257812 C 163.207031 490.300781 162.835938 490.339844 162.476562 490.378906 C 160.984375 490.550781 159.503906 490.734375 158.023438 490.945312 L 176.222656 459.425781 C 176.382812 459.414062 176.554688 459.414062 176.710938 459.398438 C 178.828125 459.292969 180.941406 459.199219 183.042969 459.148438 C 183.453125 459.136719 183.863281 459.121094 184.273438 459.121094 C 186.453125 459.070312 188.632812 459.027344 190.800781 459.027344 C 211.367188 459.027344 231.824219 461.355469 251.636719 465.929688 C 272.875 470.816406 293.464844 478.3125 312.855469 488.183594 C 315.339844 489.453125 317.8125 490.761719 320.257812 492.097656 C 321.050781 492.53125 321.828125 492.996094 322.621094 493.433594 C 324.261719 494.355469 325.914062 495.28125 327.527344 496.234375 C 328.464844 496.789062 329.375 497.355469 330.300781 497.910156 C 331.753906 498.796875 333.222656 499.683594 334.664062 500.59375 C 335.640625 501.214844 336.605469 501.851562 337.570312 502.472656 C 338.945312 503.371094 340.304688 504.257812 341.667969 505.179688 C 342.644531 505.84375 343.625 506.527344 344.589844 507.203125 C 345.910156 508.113281 347.21875 509.039062 348.527344 509.980469 C 349.503906 510.679688 350.457031 511.394531 351.421875 512.105469 C 352.703125 513.058594 353.972656 514.023438 355.242188 514.988281 C 356.191406 515.726562 357.144531 516.46875 358.082031 517.207031 C 359.335938 518.199219 360.578125 519.203125 361.808594 520.222656 C 362.734375 520.976562 363.660156 521.742188 364.570312 522.507812 C 365.800781 523.550781 367.015625 524.609375 368.230469 525.667969 C 369.117188 526.445312 370.003906 527.214844 370.875 527.992188 C 372.105469 529.089844 373.308594 530.214844 374.523438 531.335938 C 375.355469 532.117188 376.1875 532.882812 377.007812 533.664062 C 378.25 534.851562 379.480469 536.066406 380.707031 537.285156 C 381.460938 538.039062 382.226562 538.765625 382.96875 539.53125 C 384.304688 540.890625 385.613281 542.265625 386.921875 543.652344 C 387.527344 544.300781 388.148438 544.921875 388.746094 545.570312 C 390.632812 547.605469 392.496094 549.679688 394.320312 551.78125 C 394.320312 551.78125 394.320312 551.78125 394.335938 551.796875 C 396.171875 553.898438 397.957031 556.039062 399.726562 558.207031 C 400.296875 558.90625 400.835938 559.621094 401.40625 560.320312 C 402.582031 561.800781 403.769531 563.265625 404.90625 564.773438 C 405.582031 565.644531 406.230469 566.546875 406.890625 567.429688 C 407.695312 568.5 408.488281 569.570312 409.269531 570.65625 L 371.3125 570.65625 Z M 423.015625 570.683594 C 422.933594 570.550781 422.84375 570.429688 422.75 570.3125 C 421.28125 568.171875 419.789062 566.042969 418.269531 563.953125 C 418.046875 563.652344 417.832031 563.347656 417.609375 563.042969 C 416.074219 560.953125 414.53125 558.890625 412.945312 556.84375 C 412.707031 556.539062 412.480469 556.25 412.242188 555.945312 C 410.65625 553.910156 409.03125 551.902344 407.390625 549.90625 C 407.15625 549.613281 406.917969 549.324219 406.664062 549.03125 C 405.011719 547.050781 403.335938 545.09375 401.628906 543.152344 C 401.378906 542.875 401.128906 542.582031 400.890625 542.304688 C 399.171875 540.375 397.441406 538.460938 395.667969 536.582031 C 395.417969 536.320312 395.167969 536.042969 394.902344 535.777344 C 393.132812 533.898438 391.320312 532.035156 389.496094 530.210938 C 389.246094 529.960938 388.980469 529.699219 388.730469 529.445312 C 386.894531 527.609375 385.03125 525.8125 383.140625 524.027344 C 382.890625 523.789062 382.625 523.550781 382.375 523.3125 C 380.46875 521.53125 378.539062 519.785156 376.585938 518.054688 C 376.332031 517.828125 376.082031 517.617188 375.832031 517.394531 C 373.863281 515.660156 371.867188 513.957031 369.84375 512.292969 C 369.59375 512.09375 369.355469 511.894531 369.105469 511.683594 C 367.070312 510.003906 365.007812 508.351562 362.917969 506.726562 C 362.679688 506.542969 362.457031 506.371094 362.21875 506.183594 C 360.105469 504.558594 357.976562 502.949219 355.820312 501.386719 C 355.609375 501.230469 355.386719 501.070312 355.175781 500.925781 C 352.992188 499.339844 350.785156 497.792969 348.566406 496.273438 C 348.367188 496.140625 348.183594 496.007812 347.984375 495.875 C 345.722656 494.34375 343.4375 492.851562 341.136719 491.382812 C 340.980469 491.277344 340.808594 491.183594 340.648438 491.078125 C 338.308594 489.597656 335.945312 488.144531 333.550781 486.730469 C 333.433594 486.664062 333.300781 486.585938 333.183594 486.519531 C 330.75 485.078125 328.292969 483.679688 325.808594 482.316406 C 325.742188 482.277344 325.675781 482.238281 325.609375 482.210938 C 323.070312 480.824219 320.507812 479.460938 317.929688 478.152344 C 297.722656 467.859375 276.257812 460.046875 254.132812 454.957031 C 233.503906 450.1875 212.183594 447.769531 190.761719 447.769531 C 188.382812 447.769531 185.964844 447.808594 183.558594 447.875 C 183.332031 447.875 183.097656 447.875 182.871094 447.886719 L 199.972656 418.257812 C 200.609375 418.269531 201.242188 418.296875 201.875 418.308594 C 202.882812 418.347656 203.871094 418.386719 204.875 418.429688 C 206.09375 418.480469 207.308594 418.546875 208.523438 418.613281 C 209.515625 418.667969 210.519531 418.730469 211.511719 418.796875 C 212.742188 418.878906 213.957031 418.96875 215.1875 419.0625 C 216.175781 419.140625 217.167969 419.222656 218.144531 419.300781 C 219.375 419.40625 220.617188 419.523438 221.847656 419.65625 C 222.8125 419.75 223.789062 419.84375 224.753906 419.949219 C 226.011719 420.082031 227.265625 420.238281 228.519531 420.382812 C 229.460938 420.503906 230.398438 420.609375 231.335938 420.726562 C 232.644531 420.898438 233.953125 421.085938 235.261719 421.269531 C 236.132812 421.386719 237.019531 421.507812 237.890625 421.640625 C 239.332031 421.863281 240.773438 422.101562 242.214844 422.339844 C 242.953125 422.460938 243.679688 422.578125 244.421875 422.695312 C 246.589844 423.082031 248.753906 423.476562 250.910156 423.898438 C 272.359375 428.117188 293.425781 434.644531 313.542969 443.316406 C 328.277344 449.644531 342.738281 457.269531 356.523438 465.996094 C 358.992188 467.554688 361.4375 469.152344 363.859375 470.792969 C 364.042969 470.910156 364.226562 471.042969 364.414062 471.160156 C 366.726562 472.722656 369 474.320312 371.273438 475.945312 C 371.550781 476.144531 371.839844 476.355469 372.117188 476.554688 C 374.3125 478.140625 376.492188 479.753906 378.648438 481.390625 C 378.976562 481.640625 379.308594 481.894531 379.636719 482.144531 C 381.753906 483.769531 383.855469 485.421875 385.929688 487.101562 C 386.273438 487.378906 386.617188 487.65625 386.945312 487.933594 C 389.007812 489.613281 391.058594 491.332031 393.066406 493.0625 C 393.394531 493.339844 393.714844 493.617188 394.03125 493.90625 C 396.066406 495.664062 398.074219 497.449219 400.058594 499.273438 C 400.335938 499.523438 400.597656 499.777344 400.875 500.027344 C 402.898438 501.890625 404.90625 503.78125 406.890625 505.695312 C 407.074219 505.882812 407.261719 506.054688 407.445312 506.238281 C 409.507812 508.246094 411.53125 510.269531 413.539062 512.332031 C 413.578125 512.371094 413.628906 512.421875 413.671875 512.464844 C 415.667969 514.523438 417.636719 516.613281 419.578125 518.726562 C 419.722656 518.886719 419.867188 519.03125 420 519.191406 C 421.878906 521.238281 423.726562 523.328125 425.539062 525.429688 C 425.761719 525.691406 425.988281 525.945312 426.210938 526.207031 C 427.96875 528.257812 429.703125 530.332031 431.421875 532.421875 C 431.683594 532.738281 431.949219 533.066406 432.214844 533.386719 C 433.890625 535.460938 435.53125 537.546875 437.15625 539.664062 C 437.421875 540.019531 437.699219 540.363281 437.960938 540.71875 C 439.574219 542.835938 441.160156 544.960938 442.707031 547.128906 C 442.957031 547.472656 443.210938 547.832031 443.460938 548.1875 C 445.019531 550.367188 446.554688 552.574219 448.058594 554.796875 C 448.269531 555.113281 448.484375 555.429688 448.695312 555.734375 C 450.226562 558.019531 451.734375 560.320312 453.199219 562.632812 C 453.347656 562.859375 453.492188 563.09375 453.636719 563.320312 C 455.15625 565.738281 456.664062 568.183594 458.117188 570.65625 C 458.128906 570.667969 458.144531 570.695312 458.144531 570.707031 L 423.015625 570.707031 Z M 471.203125 570.683594 C 471.054688 570.429688 470.910156 570.167969 470.765625 569.914062 C 470.367188 569.214844 469.960938 568.515625 469.550781 567.800781 C 469.113281 567.046875 468.675781 566.292969 468.242188 565.554688 C 467.832031 564.851562 467.410156 564.152344 467 563.464844 C 466.550781 562.726562 466.113281 561.984375 465.664062 561.246094 C 465.242188 560.542969 464.804688 559.855469 464.382812 559.15625 C 463.933594 558.429688 463.484375 557.703125 463.019531 556.976562 C 462.585938 556.277344 462.136719 555.589844 461.699219 554.886719 C 461.238281 554.175781 460.773438 553.449219 460.3125 552.734375 C 459.863281 552.046875 459.398438 551.347656 458.949219 550.660156 C 458.488281 549.957031 458.011719 549.246094 457.535156 548.542969 C 457.074219 547.855469 456.597656 547.167969 456.121094 546.480469 C 455.644531 545.796875 455.171875 545.09375 454.679688 544.40625 C 454.207031 543.71875 453.714844 543.03125 453.226562 542.34375 C 452.738281 541.660156 452.25 540.984375 451.761719 540.308594 C 451.269531 539.636719 450.769531 538.949219 450.28125 538.273438 C 449.789062 537.601562 449.289062 536.925781 448.785156 536.265625 C 448.285156 535.59375 447.78125 534.917969 447.265625 534.242188 C 446.765625 533.582031 446.261719 532.921875 445.746094 532.261719 C 445.230469 531.585938 444.714844 530.925781 444.1875 530.253906 C 443.671875 529.605469 443.167969 528.957031 442.652344 528.308594 C 442.125 527.648438 441.597656 526.976562 441.054688 526.3125 C 440.539062 525.679688 440.023438 525.046875 439.496094 524.410156 C 438.953125 523.75 438.410156 523.089844 437.855469 522.429688 C 437.328125 521.808594 436.8125 521.171875 436.285156 520.550781 C 435.730469 519.902344 435.171875 519.242188 434.617188 518.59375 C 434.089844 517.972656 433.546875 517.367188 433.007812 516.746094 C 432.4375 516.097656 431.871094 515.449219 431.300781 514.816406 C 430.757812 514.207031 430.21875 513.601562 429.664062 512.992188 C 429.09375 512.359375 428.511719 511.722656 427.929688 511.089844 C 427.375 510.480469 426.820312 509.886719 426.265625 509.292969 C 425.683594 508.65625 425.089844 508.035156 424.507812 507.414062 C 423.953125 506.820312 423.382812 506.238281 422.816406 505.65625 C 422.222656 505.035156 421.625 504.414062 421.019531 503.804688 C 420.449219 503.226562 419.882812 502.644531 419.3125 502.074219 C 418.707031 501.46875 418.097656 500.847656 417.488281 500.238281 C 416.921875 499.667969 416.339844 499.101562 415.757812 498.53125 C 415.136719 497.925781 414.515625 497.316406 413.894531 496.722656 C 413.3125 496.167969 412.730469 495.613281 412.136719 495.058594 C 411.503906 494.460938 410.882812 493.867188 410.246094 493.273438 C 409.652344 492.71875 409.058594 492.175781 408.464844 491.621094 C 407.828125 491.039062 407.195312 490.457031 406.558594 489.875 C 405.953125 489.335938 405.34375 488.792969 404.734375 488.238281 C 404.101562 487.667969 403.453125 487.085938 402.804688 486.53125 C 402.199219 485.992188 401.578125 485.460938 400.957031 484.933594 C 400.308594 484.363281 399.660156 483.808594 399 483.253906 C 398.378906 482.726562 397.746094 482.199219 397.125 481.683594 C 396.460938 481.125 395.816406 480.585938 395.152344 480.03125 C 394.519531 479.5 393.871094 478.984375 393.222656 478.46875 C 392.5625 477.941406 391.902344 477.398438 391.242188 476.871094 C 390.582031 476.34375 389.921875 475.828125 389.273438 475.3125 C 388.613281 474.796875 387.964844 474.269531 387.289062 473.765625 C 386.617188 473.25 385.929688 472.734375 385.253906 472.21875 C 384.59375 471.71875 383.945312 471.214844 383.285156 470.726562 C 382.585938 470.195312 381.886719 469.695312 381.171875 469.167969 C 380.523438 468.691406 379.875 468.214844 379.226562 467.738281 C 378.5 467.210938 377.761719 466.679688 377.019531 466.164062 C 376.386719 465.714844 375.765625 465.265625 375.132812 464.816406 C 374.351562 464.277344 373.570312 463.746094 372.804688 463.207031 C 372.195312 462.78125 371.601562 462.371094 370.980469 461.949219 C 370.136719 461.367188 369.277344 460.8125 368.417969 460.246094 C 367.875 459.886719 367.332031 459.519531 366.792969 459.160156 C 365.390625 458.234375 363.976562 457.335938 362.5625 456.4375 C 350.058594 448.535156 337.015625 441.492188 323.71875 435.449219 C 321.816406 434.59375 319.914062 433.746094 318.007812 432.925781 C 297.167969 423.9375 275.332031 417.160156 253.089844 412.796875 C 250.960938 412.375 248.820312 411.992188 246.667969 411.609375 C 245.980469 411.488281 245.292969 411.382812 244.605469 411.265625 C 243.136719 411.011719 241.65625 410.777344 240.179688 410.550781 C 239.371094 410.433594 238.578125 410.3125 237.773438 410.195312 C 236.371094 409.996094 234.984375 409.796875 233.582031 409.613281 C 232.777344 409.507812 231.96875 409.402344 231.164062 409.296875 C 229.671875 409.109375 228.191406 408.9375 226.695312 408.765625 C 225.996094 408.6875 225.308594 408.609375 224.609375 408.527344 C 222.441406 408.304688 220.261719 408.09375 218.078125 407.90625 C 218.015625 407.90625 217.933594 407.894531 217.867188 407.894531 C 215.753906 407.722656 213.652344 407.5625 211.539062 407.433594 C 210.835938 407.390625 210.136719 407.351562 209.449219 407.3125 C 208.40625 407.246094 207.375 407.179688 206.332031 407.140625 L 222.839844 378.539062 C 223.566406 378.605469 224.277344 378.671875 225.003906 378.738281 C 225.929688 378.832031 226.84375 378.925781 227.769531 379.015625 C 227.992188 379.042969 228.230469 379.070312 228.453125 379.097656 C 229.671875 379.226562 230.886719 379.359375 232.117188 379.503906 C 232.988281 379.613281 233.875 379.703125 234.746094 379.824219 C 236.34375 380.019531 237.929688 380.246094 239.53125 380.457031 C 240.269531 380.5625 241.011719 380.65625 241.765625 380.761719 C 244.101562 381.105469 246.441406 381.460938 248.796875 381.84375 C 270.125 385.398438 291.234375 390.976562 311.546875 398.40625 L 312.3125 398.683594 C 313.636719 399.171875 314.957031 399.675781 316.277344 400.175781 C 316.820312 400.386719 317.375 400.585938 317.917969 400.796875 C 318.589844 401.0625 319.265625 401.339844 319.925781 401.605469 C 321.117188 402.066406 322.292969 402.542969 323.480469 403.019531 C 323.519531 403.03125 323.574219 403.058594 323.613281 403.070312 C 329.113281 405.316406 334.558594 407.710938 339.910156 410.21875 C 340.582031 410.539062 341.257812 410.867188 341.917969 411.183594 C 343.042969 411.726562 344.164062 412.257812 345.289062 412.796875 C 348.855469 414.542969 352.386719 416.351562 355.875 418.214844 C 368.628906 425.011719 381.117188 432.703125 392.988281 441.066406 C 394.507812 442.136719 396.011719 443.222656 397.519531 444.320312 C 398.023438 444.6875 398.523438 445.074219 399.027344 445.441406 C 400.019531 446.167969 401.007812 446.894531 401.988281 447.636719 C 402.59375 448.097656 403.191406 448.5625 403.796875 449.023438 C 404.671875 449.683594 405.542969 450.359375 406.414062 451.03125 C 407.050781 451.523438 407.683594 452.023438 408.316406 452.527344 C 409.136719 453.175781 409.96875 453.820312 410.777344 454.484375 C 411.421875 455.011719 412.070312 455.539062 412.71875 456.070312 C 413.511719 456.714844 414.304688 457.351562 415.085938 458.011719 C 415.730469 458.554688 416.394531 459.109375 417.039062 459.648438 C 417.808594 460.296875 418.574219 460.945312 419.328125 461.59375 C 419.988281 462.160156 420.636719 462.730469 421.28125 463.285156 C 422.023438 463.933594 422.761719 464.578125 423.503906 465.226562 C 424.164062 465.808594 424.8125 466.390625 425.460938 466.972656 C 426.1875 467.621094 426.914062 468.28125 427.625 468.941406 C 428.273438 469.535156 428.921875 470.132812 429.570312 470.726562 C 430.285156 471.386719 430.996094 472.046875 431.699219 472.707031 C 432.34375 473.316406 432.980469 473.925781 433.613281 474.53125 C 434.3125 475.207031 435.015625 475.878906 435.703125 476.554688 C 436.335938 477.160156 436.957031 477.785156 437.59375 478.40625 C 438.28125 479.078125 438.964844 479.765625 439.652344 480.453125 C 440.273438 481.074219 440.894531 481.707031 441.515625 482.34375 C 442.191406 483.03125 442.867188 483.730469 443.539062 484.417969 C 444.148438 485.050781 444.769531 485.6875 445.375 486.320312 C 446.050781 487.023438 446.710938 487.734375 447.371094 488.4375 C 447.96875 489.070312 448.574219 489.71875 449.167969 490.367188 C 449.832031 491.078125 450.476562 491.792969 451.125 492.519531 C 451.71875 493.167969 452.300781 493.816406 452.898438 494.476562 C 453.542969 495.203125 454.191406 495.941406 454.839844 496.667969 C 455.40625 497.316406 455.988281 497.976562 456.558594 498.625 C 457.207031 499.378906 457.851562 500.132812 458.488281 500.886719 C 459.042969 501.53125 459.597656 502.179688 460.140625 502.839844 C 460.800781 503.621094 461.449219 504.414062 462.09375 505.207031 C 462.625 505.84375 463.140625 506.476562 463.667969 507.109375 C 464.355469 507.957031 465.03125 508.816406 465.714844 509.675781 C 466.179688 510.257812 466.65625 510.851562 467.117188 511.433594 C 467.921875 512.464844 468.730469 513.507812 469.535156 514.550781 C 469.867188 514.972656 470.183594 515.398438 470.515625 515.820312 C 471.625 517.273438 472.722656 518.742188 473.804688 520.222656 C 474.1875 520.738281 474.558594 521.265625 474.941406 521.78125 C 475.65625 522.746094 476.355469 523.722656 477.054688 524.703125 C 477.503906 525.324219 477.941406 525.957031 478.378906 526.589844 C 479 527.476562 479.621094 528.347656 480.226562 529.25 C 480.691406 529.910156 481.140625 530.582031 481.589844 531.257812 C 482.171875 532.117188 482.765625 532.976562 483.335938 533.835938 C 483.796875 534.519531 484.246094 535.222656 484.695312 535.910156 C 485.25 536.769531 485.820312 537.613281 486.375 538.472656 C 486.824219 539.171875 487.273438 539.886719 487.722656 540.601562 C 488.265625 541.460938 488.804688 542.304688 489.335938 543.164062 C 489.785156 543.878906 490.21875 544.605469 490.65625 545.320312 C 491.183594 546.179688 491.714844 547.039062 492.230469 547.910156 C 492.664062 548.636719 493.089844 549.363281 493.523438 550.089844 C 494.039062 550.960938 494.542969 551.820312 495.058594 552.695312 C 495.480469 553.421875 495.902344 554.160156 496.3125 554.902344 C 496.816406 555.773438 497.304688 556.660156 497.792969 557.53125 C 498.203125 558.269531 498.613281 559.011719 499.023438 559.75 C 499.511719 560.636719 499.988281 561.523438 500.476562 562.421875 C 500.871094 563.160156 501.269531 563.902344 501.664062 564.640625 C 502.140625 565.539062 502.617188 566.4375 503.078125 567.351562 C 503.460938 568.089844 503.847656 568.832031 504.230469 569.585938 C 504.425781 569.96875 504.613281 570.351562 504.8125 570.734375 L 471.203125 570.734375 Z M 517.445312 570.683594 C 517.289062 570.339844 517.117188 570.007812 516.945312 569.664062 C 516.519531 568.792969 516.085938 567.917969 515.648438 567.058594 C 515.210938 566.203125 514.789062 565.328125 514.351562 564.46875 C 513.902344 563.597656 513.453125 562.726562 513.003906 561.851562 C 512.570312 561.007812 512.121094 560.160156 511.683594 559.316406 C 511.222656 558.441406 510.757812 557.570312 510.28125 556.699219 C 509.832031 555.867188 509.382812 555.035156 508.921875 554.199219 C 508.445312 553.328125 507.957031 552.46875 507.480469 551.597656 C 507.019531 550.777344 506.554688 549.957031 506.09375 549.140625 C 505.605469 548.265625 505.101562 547.40625 504.597656 546.546875 C 504.125 545.742188 503.660156 544.9375 503.183594 544.128906 C 502.667969 543.269531 502.167969 542.410156 501.652344 541.550781 C 501.175781 540.757812 500.6875 539.953125 500.199219 539.160156 C 499.667969 538.300781 499.140625 537.457031 498.613281 536.597656 C 498.125 535.804688 497.621094 535.023438 497.132812 534.242188 C 496.589844 533.398438 496.046875 532.550781 495.507812 531.707031 C 495.003906 530.925781 494.503906 530.160156 493.988281 529.378906 C 493.429688 528.535156 492.875 527.6875 492.308594 526.855469 C 491.792969 526.089844 491.277344 525.335938 490.761719 524.570312 C 490.195312 523.738281 489.613281 522.890625 489.042969 522.058594 C 488.515625 521.304688 488 520.550781 487.472656 519.796875 C 486.890625 518.964844 486.292969 518.144531 485.714844 517.3125 C 485.171875 516.558594 484.644531 515.820312 484.101562 515.078125 C 483.507812 514.261719 482.910156 513.441406 482.304688 512.636719 C 481.75 511.894531 481.207031 511.15625 480.652344 510.429688 C 480.042969 509.621094 479.433594 508.816406 478.8125 508.007812 C 478.246094 507.28125 477.691406 506.542969 477.121094 505.816406 C 476.5 505.023438 475.878906 504.230469 475.257812 503.4375 C 474.691406 502.710938 474.109375 501.996094 473.527344 501.269531 C 472.894531 500.488281 472.257812 499.695312 471.625 498.917969 C 471.042969 498.203125 470.449219 497.488281 469.851562 496.773438 C 469.207031 496.007812 468.570312 495.230469 467.925781 494.460938 C 467.328125 493.75 466.722656 493.046875 466.113281 492.347656 C 465.464844 491.582031 464.804688 490.828125 464.144531 490.074219 C 463.535156 489.375 462.914062 488.671875 462.292969 487.972656 C 461.632812 487.21875 460.972656 486.480469 460.296875 485.738281 C 459.664062 485.039062 459.027344 484.351562 458.394531 483.652344 C 457.722656 482.925781 457.058594 482.183594 456.386719 481.457031 C 455.738281 480.769531 455.089844 480.082031 454.441406 479.394531 C 453.769531 478.683594 453.09375 477.96875 452.40625 477.253906 C 451.746094 476.566406 451.074219 475.878906 450.410156 475.207031 C 449.726562 474.503906 449.050781 473.804688 448.363281 473.105469 C 447.691406 472.417969 447.003906 471.742188 446.316406 471.070312 C 445.628906 470.382812 444.941406 469.695312 444.238281 469.019531 C 443.539062 468.347656 442.839844 467.671875 442.136719 467 C 441.453125 466.335938 440.75 465.664062 440.050781 465.003906 C 439.335938 464.328125 438.609375 463.65625 437.882812 462.980469 C 437.183594 462.332031 436.496094 461.683594 435.792969 461.039062 C 435.054688 460.363281 434.316406 459.703125 433.574219 459.027344 C 432.875 458.394531 432.1875 457.773438 431.484375 457.140625 C 430.734375 456.464844 429.964844 455.804688 429.214844 455.144531 C 428.511719 454.535156 427.824219 453.914062 427.113281 453.320312 C 426.320312 452.644531 425.527344 451.972656 424.71875 451.296875 C 424.03125 450.714844 423.359375 450.132812 422.671875 449.566406 C 421.851562 448.878906 421.019531 448.203125 420.1875 447.53125 C 419.511719 446.976562 418.851562 446.433594 418.164062 445.878906 C 417.292969 445.179688 416.417969 444.492188 415.546875 443.804688 C 414.898438 443.289062 414.25 442.773438 413.605469 442.269531 C 412.664062 441.542969 411.726562 440.828125 410.777344 440.101562 C 410.167969 439.640625 409.574219 439.179688 408.980469 438.714844 C 407.90625 437.910156 406.835938 437.128906 405.765625 436.335938 C 405.742188 436.308594 405.714844 436.296875 405.675781 436.269531 C 413.921875 429.675781 421.929688 422.65625 429.609375 415.335938 C 429.808594 415.757812 430.007812 416.167969 430.191406 416.578125 C 430.851562 418.019531 431.527344 419.457031 432.214844 420.886719 C 432.621094 421.746094 433.046875 422.589844 433.46875 423.4375 C 434.101562 424.71875 434.722656 426.015625 435.371094 427.28125 C 435.835938 428.183594 436.296875 429.082031 436.757812 429.980469 C 437.394531 431.195312 438.015625 432.410156 438.664062 433.628906 C 439.152344 434.550781 439.652344 435.464844 440.144531 436.390625 C 440.777344 437.566406 441.425781 438.742188 442.074219 439.90625 C 442.589844 440.828125 443.101562 441.753906 443.632812 442.679688 C 444.28125 443.832031 444.941406 444.980469 445.613281 446.128906 C 446.15625 447.054688 446.683594 447.96875 447.226562 448.878906 C 447.902344 450.015625 448.589844 451.152344 449.277344 452.289062 C 449.832031 453.1875 450.371094 454.097656 450.925781 454.996094 C 451.640625 456.132812 452.355469 457.269531 453.082031 458.40625 C 453.636719 459.28125 454.191406 460.152344 454.761719 461.023438 C 455.527344 462.199219 456.292969 463.363281 457.074219 464.527344 C 457.613281 465.347656 458.15625 466.164062 458.699219 466.972656 C 459.570312 468.265625 460.46875 469.550781 461.367188 470.84375 C 461.832031 471.503906 462.28125 472.179688 462.742188 472.839844 C 464.089844 474.742188 465.453125 476.648438 466.839844 478.523438 C 467.316406 479.171875 467.804688 479.820312 468.292969 480.453125 C 469.230469 481.707031 470.15625 482.964844 471.109375 484.207031 C 471.730469 485.011719 472.363281 485.820312 472.984375 486.613281 C 473.820312 487.683594 474.652344 488.753906 475.484375 489.808594 C 476.15625 490.65625 476.84375 491.488281 477.519531 492.335938 C 478.339844 493.339844 479.144531 494.34375 479.964844 495.335938 C 480.679688 496.195312 481.390625 497.039062 482.105469 497.886719 C 482.925781 498.851562 483.742188 499.816406 484.5625 500.78125 C 485.289062 501.625 486.03125 502.472656 486.769531 503.316406 C 487.601562 504.253906 488.4375 505.195312 489.269531 506.132812 C 490.023438 506.964844 490.773438 507.8125 491.527344 508.644531 C 492.375 509.570312 493.21875 510.492188 494.078125 511.40625 C 494.847656 512.226562 495.613281 513.042969 496.378906 513.863281 C 497.25 514.777344 498.125 515.6875 499.007812 516.601562 C 499.777344 517.394531 500.554688 518.199219 501.335938 518.992188 C 502.246094 519.917969 503.160156 520.816406 504.085938 521.726562 C 504.851562 522.496094 505.617188 523.246094 506.382812 524 C 507.363281 524.953125 508.351562 525.902344 509.359375 526.84375 C 510.085938 527.53125 510.796875 528.230469 511.539062 528.917969 C 512.792969 530.105469 514.074219 531.269531 515.359375 532.433594 C 516.046875 533.066406 516.730469 533.6875 517.433594 534.308594 C 518.953125 535.671875 520.472656 537.019531 522.019531 538.367188 C 522.734375 538.988281 523.445312 539.582031 524.160156 540.191406 C 525.257812 541.128906 526.339844 542.054688 527.449219 542.980469 C 528.242188 543.640625 529.050781 544.289062 529.84375 544.949219 C 530.886719 545.808594 531.917969 546.652344 532.976562 547.5 C 533.808594 548.175781 534.652344 548.820312 535.488281 549.480469 C 536.515625 550.300781 537.546875 551.109375 538.59375 551.914062 C 539.453125 552.574219 540.308594 553.222656 541.167969 553.871094 C 542.214844 554.664062 543.257812 555.441406 544.316406 556.222656 C 545.1875 556.871094 546.046875 557.503906 546.933594 558.140625 C 548.003906 558.90625 549.058594 559.671875 550.144531 560.4375 C 551.015625 561.058594 551.886719 561.667969 552.761719 562.289062 C 553.855469 563.054688 554.953125 563.808594 556.066406 564.550781 C 556.921875 565.144531 557.796875 565.726562 558.667969 566.308594 C 559.816406 567.074219 560.96875 567.828125 562.132812 568.582031 C 562.964844 569.121094 563.808594 569.675781 564.640625 570.207031 C 564.894531 570.363281 565.144531 570.535156 565.394531 570.695312 L 517.445312 570.695312 Z M 587.375 570.683594 C 586.527344 570.207031 585.683594 569.71875 584.835938 569.226562 C 583.804688 568.632812 582.761719 568.039062 581.730469 567.445312 C 580.671875 566.824219 579.628906 566.1875 578.585938 565.566406 C 577.582031 564.957031 576.5625 564.351562 575.558594 563.742188 C 574.5 563.09375 573.457031 562.433594 572.414062 561.773438 C 571.433594 561.152344 570.445312 560.542969 569.480469 559.910156 C 568.421875 559.234375 567.378906 558.535156 566.332031 557.847656 C 565.382812 557.214844 564.417969 556.59375 563.480469 555.957031 C 562.421875 555.246094 561.390625 554.53125 560.347656 553.804688 C 559.421875 553.167969 558.484375 552.523438 557.558594 551.875 C 556.515625 551.132812 555.46875 550.382812 554.4375 549.628906 C 553.539062 548.980469 552.628906 548.332031 551.742188 547.671875 C 550.699219 546.90625 549.667969 546.113281 548.625 545.332031 C 547.75 544.671875 546.867188 544.023438 545.992188 543.351562 C 544.949219 542.558594 543.917969 541.738281 542.886719 540.929688 C 542.042969 540.257812 541.183594 539.597656 540.335938 538.921875 C 539.304688 538.101562 538.289062 537.257812 537.257812 536.425781 C 536.425781 535.75 535.59375 535.078125 534.773438 534.390625 C 533.753906 533.53125 532.738281 532.671875 531.734375 531.796875 C 530.925781 531.113281 530.105469 530.425781 529.3125 529.738281 C 528.296875 528.851562 527.304688 527.964844 526.300781 527.066406 C 525.519531 526.367188 524.726562 525.679688 523.949219 524.964844 C 522.945312 524.054688 521.953125 523.140625 520.960938 522.21875 C 520.195312 521.515625 519.429688 520.816406 518.675781 520.101562 C 517.683594 519.164062 516.691406 518.210938 515.714844 517.261719 C 514.972656 516.546875 514.234375 515.847656 513.507812 515.132812 C 512.53125 514.167969 511.550781 513.191406 510.585938 512.210938 C 509.871094 511.5 509.144531 510.785156 508.433594 510.058594 C 507.46875 509.066406 506.503906 508.0625 505.550781 507.058594 C 504.863281 506.332031 504.164062 505.617188 503.476562 504.890625 C 502.523438 503.871094 501.574219 502.839844 500.632812 501.8125 C 499.960938 501.082031 499.285156 500.355469 498.613281 499.617188 C 497.675781 498.574219 496.75 497.527344 495.824219 496.472656 C 495.164062 495.730469 494.503906 494.992188 493.855469 494.238281 C 492.929688 493.179688 492.03125 492.097656 491.117188 491.027344 C 490.484375 490.273438 489.835938 489.53125 489.203125 488.765625 C 488.304688 487.683594 487.417969 486.585938 486.519531 485.488281 C 485.898438 484.734375 485.277344 483.980469 484.667969 483.214844 C 483.785156 482.117188 482.925781 480.996094 482.066406 479.882812 C 481.457031 479.105469 480.847656 478.339844 480.242188 477.558594 C 479.382812 476.433594 478.550781 475.3125 477.703125 474.1875 C 477.109375 473.394531 476.515625 472.617188 475.933594 471.824219 C 475.101562 470.6875 474.28125 469.523438 473.449219 468.375 C 472.878906 467.582031 472.296875 466.789062 471.742188 465.996094 C 470.925781 464.832031 470.132812 463.65625 469.324219 462.492188 C 468.769531 461.6875 468.214844 460.894531 467.671875 460.085938 C 466.878906 458.921875 466.113281 457.734375 465.347656 456.558594 C 464.804688 455.738281 464.261719 454.917969 463.722656 454.097656 C 462.953125 452.910156 462.199219 451.707031 461.460938 450.503906 C 460.945312 449.671875 460.417969 448.851562 459.902344 448.019531 C 459.148438 446.804688 458.421875 445.589844 457.695312 444.359375 C 457.191406 443.527344 456.691406 442.707031 456.1875 441.859375 C 455.472656 440.644531 454.773438 439.402344 454.074219 438.171875 C 453.585938 437.328125 453.09375 436.480469 452.605469 435.621094 C 451.90625 434.378906 451.246094 433.136719 450.558594 431.882812 C 450.09375 431.023438 449.605469 430.175781 449.15625 429.320312 C 448.484375 428.050781 447.820312 426.769531 447.160156 425.5 C 446.726562 424.652344 446.261719 423.808594 445.824219 422.949219 C 445.152344 421.625 444.503906 420.304688 443.855469 418.96875 C 443.445312 418.152344 443.039062 417.332031 442.628906 416.5 C 441.914062 415.03125 441.238281 413.550781 440.550781 412.070312 C 440.222656 411.371094 439.890625 410.683594 439.574219 409.984375 C 438.582031 407.800781 437.605469 405.609375 436.652344 403.402344 C 430.679688 389.589844 425.566406 375.25 421.441406 360.777344 C 416.617188 343.902344 413.050781 326.519531 410.84375 309.113281 C 408.9375 294.324219 407.988281 279.191406 407.988281 264.125 C 407.988281 246.097656 409.363281 228.085938 412.058594 210.558594 C 412.386719 209.238281 412.679688 207.917969 412.984375 206.59375 C 413.15625 205.839844 413.339844 205.101562 413.511719 204.347656 C 413.605469 203.910156 413.683594 203.460938 413.789062 203.027344 C 414.121094 201.480469 414.4375 199.933594 414.742188 198.386719 C 414.808594 198.03125 414.875 197.671875 414.9375 197.316406 C 415.296875 195.414062 415.640625 193.511719 415.945312 191.605469 C 416.074219 190.800781 416.179688 189.996094 416.300781 189.1875 C 416.5 187.90625 416.695312 186.625 416.867188 185.34375 C 417.421875 182.910156 418.019531 180.480469 418.625 178.058594 C 418.746094 177.570312 418.863281 177.09375 418.996094 176.605469 C 419.589844 174.253906 420.226562 171.914062 420.875 169.574219 C 420.992188 169.152344 421.109375 168.730469 421.230469 168.308594 C 421.507812 167.34375 421.796875 166.390625 422.074219 165.4375 L 443.566406 202.628906 C 443.527344 202.816406 443.5 203.011719 443.460938 203.199219 C 443.0625 205.246094 442.695312 207.28125 442.351562 209.304688 C 442.296875 209.621094 442.246094 209.9375 442.191406 210.253906 C 441.847656 212.292969 441.53125 214.3125 441.226562 216.308594 L 441.132812 216.730469 L 441.132812 216.984375 C 441.027344 217.671875 440.949219 218.359375 440.84375 219.042969 C 440.671875 220.273438 440.488281 221.515625 440.328125 222.746094 C 440.222656 223.550781 440.128906 224.359375 440.039062 225.175781 C 439.90625 226.3125 439.757812 227.449219 439.628906 228.601562 C 439.535156 229.472656 439.457031 230.359375 439.363281 231.230469 C 439.257812 232.3125 439.136719 233.398438 439.03125 234.480469 C 438.941406 235.460938 438.875 236.4375 438.792969 237.414062 C 438.714844 238.40625 438.621094 239.386719 438.558594 240.375 C 438.476562 241.433594 438.425781 242.492188 438.359375 243.546875 C 438.304688 244.460938 438.238281 245.371094 438.1875 246.296875 C 438.121094 247.472656 438.082031 248.648438 438.027344 249.839844 C 437.988281 250.632812 437.949219 251.425781 437.921875 252.230469 C 437.871094 253.710938 437.828125 255.191406 437.804688 256.683594 C 437.789062 257.175781 437.777344 257.675781 437.765625 258.164062 C 437.722656 260.148438 437.710938 262.117188 437.710938 264.097656 C 437.710938 282.917969 439.351562 301.78125 442.589844 320.136719 C 445.707031 337.992188 450.425781 355.769531 456.597656 372.988281 C 472.878906 418.257812 499.722656 460.058594 534.242188 493.90625 C 536.386719 496.007812 538.566406 498.082031 540.761719 500.117188 C 541.5 500.804688 542.265625 501.46875 543.019531 502.15625 C 544.5 503.488281 545.96875 504.835938 547.460938 506.144531 C 548.371094 506.953125 549.3125 507.71875 550.25 508.511719 C 551.609375 509.675781 552.957031 510.835938 554.332031 511.972656 C 555.335938 512.808594 556.355469 513.601562 557.371094 514.417969 C 558.695312 515.488281 560.015625 516.574219 561.351562 517.617188 C 562.410156 518.4375 563.492188 519.242188 564.550781 520.050781 C 565.871094 521.054688 567.191406 522.070312 568.527344 523.0625 C 569.625 523.882812 570.746094 524.660156 571.871094 525.453125 C 573.191406 526.40625 574.515625 527.371094 575.863281 528.296875 C 577 529.089844 578.164062 529.855469 579.3125 530.636719 C 580.648438 531.535156 581.980469 532.460938 583.328125 533.34375 C 584.507812 534.113281 585.695312 534.851562 586.886719 535.605469 C 588.234375 536.464844 589.582031 537.335938 590.941406 538.167969 C 592.144531 538.910156 593.359375 539.625 594.578125 540.351562 C 595.9375 541.167969 597.300781 541.988281 598.675781 542.78125 C 599.902344 543.496094 601.144531 544.183594 602.386719 544.871094 C 603.761719 545.636719 605.136719 546.429688 606.523438 547.167969 C 607.78125 547.855469 609.050781 548.503906 610.316406 549.164062 C 611.707031 549.890625 613.09375 550.632812 614.496094 551.347656 C 615.777344 551.992188 617.058594 552.613281 618.355469 553.25 C 619.753906 553.9375 621.15625 554.636719 622.570312 555.296875 C 623.863281 555.90625 625.1875 556.5 626.496094 557.09375 C 627.910156 557.742188 629.324219 558.390625 630.75 559.011719 C 632.074219 559.59375 633.40625 560.148438 634.730469 560.703125 C 636.15625 561.3125 637.582031 561.917969 639.023438 562.5 C 640.359375 563.042969 641.707031 563.558594 643.054688 564.074219 C 644.496094 564.640625 645.9375 565.195312 647.390625 565.738281 C 648.738281 566.242188 650.097656 566.714844 651.460938 567.207031 C 652.570312 567.601562 653.679688 568.023438 654.804688 568.410156 L 656.058594 570.574219 L 587.375 570.574219 Z M 587.375 570.683594 " fill-opacity="1" fill-rule="nonzero"/></g></svg>